<?xml version="1.0" encoding="UTF-8" standalone="no"?>
<svg
   version="1.1"
   width="792.883"
   height="225.38747"
   id="svg84"
   xmlns="http://www.w3.org/2000/svg"
   xmlns:svg="http://www.w3.org/2000/svg">
  <defs
     id="defs84" />
  <path
     d="m 6.3105509,0.01376738 c -1.6570789,1.1e-4 -2.838722,0.0233 -3.7382819,0.15234 0.8997669,-0.12918 2.0790169,-0.15223 3.7382819,-0.15234 z M 791.12891,1.1387673 v 5 c 1.3614,8.7129397 0.71175,17.1528397 0.008,25.8847697 0.53266,4.17369 0.87884,8.39957 1.15039,12.64453 -8.3e-4,-0.62108 -9.5e-4,-1.24223 -0.002,-1.86328 -0.004,-2.0285 -0.009,-4.05549 -0.0117,-6.08399 0.003,-11.84627 0.23715,-23.79513 -1.14469,-35.5820297 z m 0,5 c -1.08436,-0.25302 -2.08364,-0.50273 -3.0625,-0.81445 -0.97889,-0.31174 -1.93739,-0.6855 -2.9375,-1.18555 -1.74356,-0.0947 -3.4902,-0.12528 -5.23633,-0.125 l -3.39453,-0.006 -3.76562,0.008 -3.98829,-0.004 c -3.6811,-0.003 -7.36186,-2.6e-4 -11.04296,0.004 -3.99385,0.003 -7.98662,0.002 -11.98047,0 -7.00916,-0.002 -14.01819,-1.5e-4 -21.02735,0.004 -10.42246,0.006 -20.84511,0.007 -31.26758,0.006 -17.52981,-0.001 -35.06003,0.002 -52.58984,0.008 -17.36437,0.006 -34.72938,0.009 -52.09375,0.01 l -3.26953,0.002 c -5.4765,3.4e-4 -10.95319,-2.9e-4 -16.42969,0 -38.82085,0.002 -77.64204,0.008 -116.46289,0.0176 -37.72109,0.009 -75.44297,0.0172 -113.16406,0.0215 h -3.52149 c -11.67,0.001 -23.33976,0.003 -35.00976,0.004 -23.77454,0.003 -47.54968,0.005 -71.32422,0.008 l -3.3125,0.002 c -73.03068,0.009 -146.06307,0.0242 -219.093749,0.041 -0.0083,0.006 -0.02305,0.006 -0.03125,0.0117 -2.593851,4.75639 -2.598428,4.7682 -3.363282,10.0371097 l -0.01758,2.27344 0.02539,2.44726 -0.0078,2.63867 c -0.0049,2.91128 0.01289,5.82315 0.0293,8.73438 8.47e-4,2.08951 -2.54e-4,4.17806 -0.002,6.26758 -8.61e-4,5.66892 0.01617,11.33893 0.03711,17.00781 0.01875,5.92567 0.02183,11.85165 0.02539,17.77734 0.0093,11.21954 0.0324,22.4387 0.0625,33.658203 0.03353,12.77367 0.05135,25.5466 0.06641,38.32031 0.03139,26.27393 0.08358,52.55015 0.1504209,78.82509 H 0.12891 c 2.68e-4,0.33333 -2.69e-4,0.66667 0,1 2.3915439,1.46425 4.042855,2.00464 6.863281,2.24805 l 3.400391,-0.006 c 2.024877,0.005 4.051308,0.011 6.076172,0.002 1.501191,-0.007 3.000745,-0.0118 4.501956,-0.0117 4.17331,0.005 8.34818,0.002 12.52148,-0.01 4.62388,-0.0133 9.2472,-0.0182 13.8711,-0.0195 8.16797,-0.002 16.33594,-0.008 24.5039,-0.0234 12.35451,-0.0237 24.70797,-0.0403 37.0625,-0.0508 13.93385,-0.0116 27.86837,-0.0326 41.80274,-0.0508 -2.48956,-0.003 -4.9791,-0.003 -7.46875,-0.006 -8.95747,-0.0112 -17.91558,-0.0165 -26.87305,-0.0215 -18.41987,-0.01 -36.84186,-0.0281 -55.26172,-0.0504 v -0.8125 c -5.36287,0.001 -10.72714,0.013 -16.08984,0.0293 -4.33298,0.0111 -8.66506,0.0122 -12.99805,0.0117 -2.08243,0.001 -4.16563,0.006 -6.24805,0.0137 -2.90895,0.01 -5.817607,0.006 -8.72656,0 l -2.621094,0.0176 c -5.973823,-0.0317 -5.973991,-0.0315 -9.3164061,-2.2598 0.5927911,-0.59279 0.9655521,-0.81001 1.5,-0.93359 1.8165291,-0.67533 4.1212821,-0.32906 6.0410161,-0.38672 l 2.09375,-0.0645 c 2.331426,-0.0683 4.662426,-0.12791 6.994144,-0.18554 l 2.47265,-0.0645 c 10.43833,-0.26565 20.87663,-0.3675 31.31446,-0.38476 10.43782,-0.0173 20.8779,0.0494 31.31835,0.11914 5.45029,0.0351 10.89929,0.0648 16.34961,0.0937 10.25508,0.0554 20.5106,0.11588 30.76563,0.17969 11.70294,0.0725 23.40835,0.13809 35.11133,0.20312 24.01295,0.13371 48.02619,0.27605 72.03906,0.42396 v 1 l -2.13477,0.0137 c -7.28837,0.0439 -14.57697,0.0928 -21.86523,0.13867 v 1.84763 c -3.67865,0.58557 -7.25904,0.89228 -10.91992,1.01172 4.97459,-0.006 9.94923,-0.012 14.92383,-0.0176 l 0.99609,-1.99412 c 9.33947,-0.38876 18.6688,-0.70112 28,-0.87695 v -0.12305 l 1.06055,0.10547 c 5.18394,-0.0919 10.36936,-0.14285 15.55859,-0.13867 2.1263,0.002 4.25301,0.0129 6.38086,0.0332 v 2 c -7.95016,0.58046 -15.9008,0.8381 -23.85352,0.96094 5.37706,-0.005 10.75366,-0.0107 16.13086,-0.0156 61.1693,-0.0564 122.33856,-0.13094 183.50782,-0.22461 6.51574,-0.01 13.03113,-0.0213 19.54687,-0.0312 l 4.90234,-0.008 c 26.70958,-0.0407 53.41932,-0.074 80.12891,-0.10352 28.01647,-0.031 56.03238,-0.0674 84.04883,-0.11328 3.93618,-0.006 7.87241,-0.0132 11.80859,-0.0195 l 2.34571,-0.004 c 12.36841,-0.02 24.73704,-0.0343 37.10546,-0.0449 12.35029,-0.0105 24.70052,-0.0255 37.05079,-0.0508 6.01013,-0.0124 12.01914,-0.026 18.02929,-0.0293 6.21071,-0.001 12.42213,-0.004 18.63282,-0.0195 2.24728,-0.007 4.49489,-0.0126 6.74218,-0.0176 3.11913,0.003 6.23832,0.005 9.35742,-0.006 l 2.78711,-0.0117 c 1.54828,0.007 3.07076,-0.0916 4.59375,-0.13867 h -1.50195 l -3.73242,0.006 c -1.38442,-0.003 -2.76792,-0.005 -4.15234,-0.008 -1.4569,4.4e-4 -2.9142,6.8e-4 -4.3711,0.002 -4.02246,0.002 -8.04395,-0.003 -12.0664,-0.008 -4.33058,-0.004 -8.66161,-0.003 -12.99219,-0.002 -7.50934,5.3e-4 -15.01997,-0.002 -22.5293,-0.008 -10.85736,-0.008 -21.7149,-0.0105 -32.57226,-0.0117 -17.61344,-0.002 -35.22641,-0.008 -52.83985,-0.0176 -17.11438,-0.009 -34.22937,-0.0172 -51.34375,-0.0215 h -3.19531 c -5.28804,-0.001 -10.57524,-0.003 -15.86328,-0.004 -43.90089,-0.01 -87.8042,-0.0276 -131.70508,-0.05 l 3,-1 v -2 c 3.3537,-1.01198 6.40145,-1.12431 9.89648,-1.12305 l 3.67579,-0.006 c 1.34808,0.003 2.69684,0.005 4.04492,0.008 1.43061,-4.4e-4 2.8604,-6.8e-4 4.29101,-0.002 3.93587,-0.002 7.87273,0.003 11.8086,0.008 4.24259,0.004 8.48397,0.003 12.72656,0.002 7.35213,-5.3e-4 14.70451,0.002 22.05664,0.008 10.62999,0.008 21.26063,0.0105 31.89062,0.0117 17.24574,0.002 34.49255,0.008 51.73829,0.0176 16.75435,0.009 33.50931,0.0172 50.26367,0.0215 h 3.1289 c 5.17935,0.001 10.35777,0.003 15.53711,0.004 42.97968,0.0104 85.96174,0.0284 128.94141,0.0508 v -3 h 1 c 0.0421,1.97799 0.0395,3.95749 0,5.93555 1.16792,-1.32907 1.23582,-2.20233 1.26367,-6.51563 l -0.0156,-2.38086 c 0.008,-2.672 0.0116,-5.34361 0.004,-8.01562 -0.006,-1.96487 -0.009,-3.92966 -0.008,-5.89453 0.007,-5.3443 0.008,-10.68891 -0.002,-16.03321 -0.0106,-5.69852 -0.0139,-11.39522 -0.0137,-17.09375 6.4e-4,-9.54844 -0.005,-19.09805 -0.0176,-28.64648 -0.0157,-11.10709 -0.026,-22.21321 -0.0254,-33.32031 3.2e-4,-4.82609 -0.004,-9.652313 -0.006,-14.478513 -0.23593,7.15829 -0.48734,14.420693 -0.57422,21.392573 -0.0719,5.88749 -0.13634,11.77454 -0.20117,17.66211 -0.12701,11.46225 -0.26269,22.92556 -0.40398,34.38816 l -3,1 c -0.13307,-11.565 -0.26305,-23.13025 -0.39063,-34.69531 -0.0594,-5.37509 -0.11952,-10.74994 -0.18164,-16.125 -0.15431,-13.39308 -0.29211,-26.788113 -0.40234,-40.181633 -0.0167,-1.99944 -0.0348,-3.99862 -0.0527,-5.99805 -0.0512,-5.69687 -0.0913,-11.39475 -0.11524,-17.0918 -0.009,-1.73181 -0.0214,-3.46355 -0.0371,-5.19531 -0.0207,-2.37258 -0.0286,-4.74453 -0.0332,-7.11719 l -0.0273,-2.08008 c 0.009,-3.83924 0.62818,-7.01758 1.89257,-10.51562 h -1.65242 l 1,-19.9999997 z m -791,215.9999927 c -2.7e-4,-0.33333 2.69e-4,-0.66667 0,-1 -0.02278,-28.26089 -0.04198,-56.5223 -0.05273,-84.7832 0.010706,28.59454 0.029782,57.18867 0.05273,85.7832 z M 0.11133,2.9903273 c -8.27e-4,0.008 -0.0011,0.0211 -0.002,0.0293 7.88e-4,-0.008 0.0015,-0.0193 0.002,-0.0293 z M 24.12891,18.138767 h 413 V 204.13876 h -413 z m 595.70898,41.10156 c 7.65429,-0.0219 15.22374,1.70829 21.62305,5.63281 4.60397,3.49341 7.93287,7.74049 9.66797,13.26563 0.67032,8.00445 0.033,16.03879 -0.875,23.999993 l -0.23828,2.10156 c -0.56196,4.46336 -1.61691,8.59133 -2.88672,12.89844 -0.3582,1.57837 -0.70509,3.15935 -1.04297,4.74219 -3.86049,17.62145 -3.86053,17.62154 -10.95703,24.25781 l -1.80469,1.90234 c -7.64399,7.50127 -16.45237,10.55074 -27.00781,10.59766 -20.6979,-0.39766 -20.69801,-0.39768 -26.96875,-5.97266 l -2.21875,-2.52734 -2.1875,-2.25 c -8.51495,-12.91924 -3.23147,-33.0658 -0.375,-47.0625 2.81291,-12.553143 6.73289,-25.953333 17.625,-33.749993 7.82291,-4.88301 17.80526,-7.80775 27.64648,-7.83594 z m 106.22461,1.33008 3.36328,0.0801 3.65235,0.0488 3.80078,0.12695 3.84766,0.0684 c 3.13528,0.0589 6.26824,0.14117 9.40234,0.24414 -2.05096,3.47695 -4.19452,6.62209 -6.75,9.75 -4.64175,5.73046 -9.16641,11.54268 -13.66406,17.38672 l -1.28516,1.66797 c -0.86456,1.12598 -1.72494,2.25457 -2.58398,3.38476 -1.92341,2.52389 -3.87433,4.99318 -5.94727,7.396483 l -1.95703,2.28906 -1.73047,1.92969 c -2.11387,4.28879 -0.34097,8.43031 1.11719,12.73828 l 1.48828,3.64453 0.80273,1.9668 c 2.13326,5.14412 4.58234,10.09777 7.11524,15.05664 1.35746,2.71492 2.63487,5.43731 3.83203,8.22656 l 0.99609,2.30859 c 0.68547,2.72771 0.18215,4.54077 -0.43359,7.25391 -3.8948,0.23282 -7.78788,0.37457 -11.6875,0.5 l -3.3418,0.20312 c -7.95516,0.19227 -7.95547,0.19299 -10.77929,-2.29687 -1.35493,-2.08924 -2.31003,-4.07995 -3.19141,-6.40628 l -1.29297,-3.30078 -0.89453,-3.01172 c -1.02365,-3.402 -1.82583,-5.7075 -3.8125,-8.6875 -0.385,-1.65549 -0.72793,-3.32225 -1,-5 -1.12096,1.31578 -2.24706,2.62771 -3.375,3.9375 l -1.89844,2.21484 c -1.72642,1.84751 -1.72672,1.84774 -3.72656,2.84766 0.19256,-0.45514 0.43507,-0.85301 0.65039,-1.28125 l -0.33008,0.46484 -1.69531,2.44141 c -1.66494,2.36126 -3.33074,4.72103 -5.02344,7.0625 -1.62781,2.27364 -1.62881,2.27172 -2.91797,4.66406 -1.40302,2.33234 -2.54463,3.95628 -4.68359,5.64844 -4.17158,0.95657 -8.12402,0.76037 -12.375,0.5 l -3.38672,-0.10938 c -2.74962,-0.094 -5.49218,-0.22523 -8.23828,-0.39062 0,-8.16132 7.38064,-14.85466 12.1875,-21.125 l 1.68945,-2.20898 c 2.78756,-3.64135 5.59403,-7.26338 8.44727,-10.85352 1.01754,-1.31202 2.0345,-2.62451 3.05078,-3.9375 l 1.46094,-1.78906 c 2.42694,-3.17902 3.17815,-4.75832 3.0039,-8.8086 l -0.83984,-3.27734 -0.8125,-3.3125 c -1.89299,-5.878233 -4.23342,-11.550363 -6.75,-17.187493 -1.52118,-3.70373 -2.63148,-7.40916 -3.69141,-11.26563 -0.71863,-2.47767 -0.71865,-2.4777 -2.74609,-5.23437 v -6 h 25 c 2.69787,4.72127 4.51706,7.93763 6.0625,12.875 l 1,3.10547 c 0.5948,1.91574 1.17939,3.83473 1.75,5.75781 l 0.0801,0.26172 h 1.10742 l 3,3 2.59766,0.86523 c 1.12424,-1.90494 2.3725,-3.64524 3.73828,-5.45507 l 1.97656,-2.62696 2.0625,-2.7207 2.03906,-2.70898 c 1.85379,-2.45773 3.70945,-4.91307 5.58594,-7.35352 l 1.83203,-2.76563 c 2.16845,-2.23533 2.16896,-2.23511 5.10156,-2.80273 z m -187.73632,0.0898 c 1.58626,0.005 3.15027,0.0814 4.68554,0.24414 l 1.16797,-0.006 c 0.99811,0.12317 1.49756,0.20595 2.00391,0.5039 3.8339,0.79648 7.41354,2.34182 10.53711,5.1836 5.96293,6.87562 6.0082,12.73296 5.4082,21.55292 -1.13277,9.28379 -5.37623,14.598403 -12,20.999993 l 1.46094,1.20703 1.91406,1.60547 1.89844,1.58203 c 2.24753,2.0899 3.60863,3.80602 4.0625,6.88281 0.13603,9.2639 -1.58858,17.89925 -7.64844,25.16016 -6.55566,6.73776 -12.69071,10.62208 -22.32617,10.78906 -2.25343,-3.1e-4 -4.50643,-0.011 -6.75977,-0.0312 l -3.60547,-0.008 c -3.79015,-0.0112 -7.58101,-0.037 -11.37109,-0.0625 -2.5742,-0.01 -5.14845,-0.0192 -7.72266,-0.0273 -6.30083,-0.022 -12.60161,-0.0555 -18.90234,-0.0977 0.45121,-5.28431 0.90733,-10.38525 2.37891,-15.5 1.91668,-7.28085 3.03439,-14.64625 4.18359,-22.07813 1.82629,-11.79451 3.72129,-23.552873 6.17187,-35.236313 1.17143,-5.595 2.09198,-11.18458 2.8711,-16.84961 0.39453,-2.33579 0.39453,-2.33581 1.39453,-4.3358 1.12839,-0.37613 2.07234,-0.61341 3,-0.79102 v -0.20898 c 0.48237,-0.004 0.96488,-0.004 1.44727,-0.008 0.87987,-0.0966 1.7899,-0.1559 2.88085,-0.16992 l 2.64258,-0.0391 2.84961,-0.0215 2.94922,-0.0254 c 2.06281,-0.0138 4.12466,-0.0234 6.1875,-0.0312 3.13423,-0.0172 6.2684,-0.0613 9.40234,-0.10547 2.0078,-0.0101 4.01563,-0.0186 6.02344,-0.0254 z M 0.03516,60.959037 c 0.0021,11.0323 0.0063,22.06341 0.01563,33.09571 4.49e-4,0.52668 0.0015,1.05339 0.002,1.58007 -0.0099,-11.55889 -0.01531,-23.1169 -0.01758,-34.67578 z M 791,223.21099 c -0.53823,0.50837 -0.94801,0.75938 -1.53515,0.87109 -0.006,0.001 -0.0139,0.003 -0.0195,0.004 -0.12825,0.0183 -0.27987,0.0335 -0.43946,0.0469 -0.15917,0.0148 -0.35117,0.0344 -0.49609,0.0547 0.54017,-0.0287 1.07371,-0.0116 1.61914,-0.0488 0.3767,-0.3767 0.61079,-0.64177 0.87109,-0.92773 z"
     style="fill:#adc6ac"
     id="path168" />
  <path
     d="M 24.12891,18.138767 V 204.13876 h 413 V 18.138767 Z m 165,50 h 3 c 1.03036,1.9532 2.04915,3.91292 3.0625,5.875 l 1.72266,3.30469 1.21484,2.82031 -0.0391,0.0801 c 0.18782,0.43921 0.27904,0.86376 0.44336,1.29492 0.52279,1.18964 1.04574,2.37969 1.55078,3.58008 l 0.045,0.0449 -0.0117,0.0332 c 0.56544,1.34518 1.1137,2.70717 1.66016,4.06836 3.21069,4.26545 5.05157,9.87113 6.35156,14.898433 -0.003,0.0198 -0.006,0.0388 -0.01,0.0586 1.39645,3.26875 2.73751,6.5613 4.07813,9.85547 0.67083,1.64047 1.35616,3.27356 2.04297,4.90625 1.00862,2.03103 1.91119,4.10292 2.76367,6.30469 0.57286,1.46449 1.24066,2.88096 1.83008,4.33203 0.78095,1.77707 1.5663,3.55345 2.36133,5.32422 1.1717,2.67509 2.11294,5.15918 2.80078,7.73633 0.15857,0.59397 0.32033,1.2398 0.4414,1.84375 0.31508,1.47916 0.55411,3.00439 0.69141,4.63867 h -8 c -0.94944,-2.37359 -1.8988,-4.74727 -2.84766,-7.12109 -0.11864,-0.29642 -0.23868,-0.59229 -0.35742,-0.88868 -0.6972,-1.74559 -0.88568,-2.23357 -1.95117,-4.17773 -0.38987,-0.8375 -0.53664,-1.50839 -0.58984,-2.15234 l -0.44141,-1.09766 -0.98047,-2.43359 c -0.66062,-1.69088 -1.25774,-3.40667 -1.83182,-5.12892 h -36 l -5,13 c -1.63057,3.36985 -3.24877,6.69875 -5,10 h -7 c 0.38853,-2.22301 0.91948,-4.4347 1.55273,-6.63477 0.11252,-0.34379 0.18702,-0.69339 0.31055,-1.0332 1.91085,-6.30817 4.6365,-12.515 7.35938,-18.59766 0.53849,-1.41448 0.97843,-2.79872 1.63671,-4.28125 l 1.16993,-2.70507 c 1.23037,-2.83719 2.4754,-5.66739 3.7207,-8.49805 0.82127,-1.88497 1.64161,-3.77043 2.46094,-5.65625 0.0309,-0.0711 0.0628,-0.14178 0.0937,-0.21289 0.10613,-0.25874 0.2143,-0.5166 0.32031,-0.77539 12.00316,-29.233453 12.00327,-29.233683 15.37505,-32.605463 z m 173.25,0.6875 2.75,0.3125 c -0.52924,3.43987 -1.41142,5.91296 -3.1543,8.7793 -1.21962,2.29413 -2.58177,4.54783 -4.0332,6.9082 l -1.71289,2.91602 c -2.36243,3.8562 -3.42916,5.54517 -4.61328,6.66406 -1.59539,2.58721 -3.17786,5.1819 -4.74024,7.789053 -0.002,0.003 -0.002,0.007 -0.004,0.01 -1.14042,2.08716 -2.39315,4.11919 -3.67969,6.18359 l -1.24414,2.05859 -0.0977,0.16016 -0.35742,0.60156 -1.24023,2.08594 c -0.99879,1.64038 -2.05744,3.24532 -3.12291,4.84352 -0.11797,4.25414 -0.24294,8.50793 -0.37305,12.76172 -0.0434,1.44812 -0.0851,2.89748 -0.125,4.3457 -0.0576,2.07762 -0.12057,4.15503 -0.18554,6.23242 l -0.11133,3.79297 c -0.0239,0.33367 -0.0501,0.35118 -0.0703,0.61328 -0.0606,0.93939 -0.11713,1.57085 -0.22852,1.96289 -0.004,0.0127 -0.006,0.0501 -0.01,0.0625 -4.5e-4,0.001 -10e-4,0.002 -0.002,0.004 -0.14694,0.4747 -0.39609,0.72617 -0.89453,1.22461 -2.99996,0.125 -3.00004,0.125 -6,0 -0.2569,-0.2569 -0.46121,-0.53959 -0.62891,-0.83984 -0.09,-0.1522 -0.23969,-0.43025 -0.28711,-0.63477 -0.65328,-1.80498 -0.2422,-4.09691 -0.25976,-6.00977 -0.0232,-1.34114 -0.0473,-2.68232 -0.0723,-4.02343 -0.035,-2.11759 -0.0647,-4.23372 -0.0781,-6.35157 -0.0155,-2.04201 -0.0556,-4.08342 -0.0996,-6.125 l -0.0449,-3.71093 c -0.28442,-1.77384 -0.71242,-3.03956 -1.32813,-4.17188 -0.99579,-1.40602 -2.05815,-2.76158 -3.20092,-4.1329 -0.96382,-1.64803 -1.88539,-3.32148 -2.76563,-5.01563 -2.03569,-3.81788 -4.1771,-7.54322 -6.41406,-11.240223 -0.43971,-0.72745 -0.88097,-1.45402 -1.32031,-2.18164 l -0.89453,-1.47461 -0.36719,-0.59961 c -1.33675,-2.17715 -2.67801,-4.35164 -4.02344,-6.52344 -2.28005,-3.74222 -4.34895,-7.19469 -5.79492,-11.06054 -0.13142,-0.32276 -0.28895,-0.57034 -0.41992,-0.9043 h 0.0918 c -0.43634,-1.27685 -0.81147,-2.59833 -1.0918,-4 4.47026,-0.39668 4.47034,-0.39666 6.77344,1.32812 1.86668,2.24002 3.55731,4.5455 5.14453,6.90821 1.19415,1.50561 2.27587,3.10173 3.33203,4.88867 l 1.57812,2.63281 c 0.59323,1.13505 0.88271,1.70009 1.02735,2.23633 0.38056,0.6702 0.76486,1.32825 1.14453,2.00586 1.01433,1.69139 2.03484,3.37918 3.0625,5.0625 2.69518,4.46775 5.20217,9.033913 7.67773,13.623043 0.50676,0.57753 0.96657,1.22617 1.49024,2.0957 0.14477,-0.1313 0.27969,-0.26582 0.41992,-0.39844 0.97839,-1.99156 2.27136,-3.64467 4.01172,-4.67187 0.94463,-1.34537 1.80712,-2.77223 2.66016,-4.24414 0.3938,-0.76914 0.66832,-1.42988 1.61523,-3.091793 l 1.71484,-3.03906 1.34766,-2.33594 0.125,0.25 c 0.46784,-0.78324 0.93726,-1.56581 1.41016,-2.3457 0.0927,-0.34364 0.14907,-0.66501 0.29687,-1.04493 l 1.33594,-2.10937 1.45898,-2.34375 1.56055,-2.40625 1.50195,-2.40625 c 3.40652,-5.40003 5.07969,-7.82114 6.48438,-9.38086 l 0.44336,-0.67773 c 0.48673,-0.54036 0.80309,-0.88329 1.14648,-1.1211 0.0763,-0.13792 0.14493,-0.27696 0.23633,-0.41406 0.57705,-0.0346 0.7934,-0.0366 1.14258,-0.0527 0.16956,-0.0247 0.42708,-0.0489 0.63672,-0.0703 0.45023,-0.0697 0.89255,-0.13386 1.4707,-0.18945 z m -72.76758,0.19141 c 1.25916,0.0601 1.88853,0.0902 2.45313,0.23046 0.56459,0.14025 1.06446,0.39063 2.06445,0.89063 0.178,1.6341 0.22584,2.8126 0,3.9375 v 1.0625 l -0.19727,-0.29492 c -0.26836,0.8347 -0.70886,1.69103 -1.38476,2.73242 l -2.23047,2.5625 -2.49609,2.91797 -1.33594,1.5293 c -2.2696,2.59977 -4.49851,5.23315 -6.73047,7.86523 l -1.39063,1.63477 c -0.30861,0.3642 -0.6094,0.73397 -0.91601,1.0996 l -0.31836,0.95313 h -0.47656 c -3.25215,3.911413 -6.40863,7.892863 -9.53907,11.906243 -5.1672,6.62272 -10.44928,13.14656 -15.91796,19.52344 l -1.51172,1.76758 c -0.9714,1.13302 -1.9465,2.26245 -2.92578,3.38867 -2.3669,2.75865 -3.98353,5.1233 -5.62891,8.41406 h 52 v 3 5 h -63 v -6 l 0.2207,0.2207 c 0.26323,-1.48472 0.84715,-2.20791 2.20117,-3.77929 l 1.58985,-1.89454 1.73828,-1.98437 c 1.20122,-1.42256 2.40175,-2.84578 3.60156,-4.26953 l 1.85156,-2.16992 c 2.7055,-3.19761 5.31579,-6.46934 7.92188,-9.74805 l 1.49219,-1.86719 c 2.40401,-3.00778 4.79304,-6.02644 7.15625,-9.0664 5.21835,-6.70892 10.54836,-13.268903 16.16797,-19.648433 l 1.42968,-1.63672 1.24805,-1.41211 c 1.95138,-2.46431 3.63724,-5.12871 5.38086,-7.74414 h -50 v -9 c 7.78836,-0.0231 15.57685,-0.0419 23.36523,-0.0527 3.61626,-0.005 7.23337,-0.0121 10.84961,-0.0234 3.48827,-0.0109 6.97656,-0.0169 10.46485,-0.0195 1.98202,-0.003 3.9633,-0.01 5.94531,-0.0176 h 3.64062 z m -193.48242,0.12109 h 1 51 v 6 1 2 h -45 v 25.999993 h 39 v 7 c -0.39459,0.39459 -0.63977,0.6297 -1,0.78125 v 0.21875 h -1.10156 c -0.55161,0.0492 -1.28926,0.0771 -2.40821,0.11328 -1.56046,-1.6e-4 -3.12121,-0.006 -4.68164,-0.0156 l -2.48437,-0.004 c -2.62893,-0.006 -5.25782,-0.0186 -7.88672,-0.0312 -1.77798,-0.005 -3.556,-0.01 -5.33398,-0.0137 -4.36787,-0.0101 -8.73565,-0.0297 -13.10352,-0.0488 v 28 h 44 v 9 h -52 z"
     style="fill:#efeeea"
     id="path167" />
  <path
     d="m 619.83789,59.240327 c -9.84124,0.0282 -19.82356,2.95292 -27.64648,7.83594 -10.89213,7.79667 -14.81208,21.19683 -17.625,33.749993 -2.85648,13.99673 -8.13997,34.14323 0.375,47.0625 l 2.1875,2.25 2.21875,2.52734 c 6.27076,5.57499 6.27081,5.575 26.96875,5.97266 10.55546,-0.0469 19.36381,-3.09638 27.00781,-10.59766 l 1.80469,-1.90234 c 7.09651,-6.63628 7.09654,-6.63633 10.95703,-24.25781 0.33788,-1.58285 0.68477,-3.16382 1.04297,-4.74219 1.26981,-4.30712 2.32476,-8.43507 2.88672,-12.89844 l 0.23828,-2.10156 c 0.90795,-7.961223 1.54533,-15.995523 0.875,-23.999993 -1.7351,-5.52515 -5.064,-9.77221 -9.66797,-13.26563 -6.39933,-3.92452 -13.96874,-5.65473 -21.62305,-5.63281 z m -3.14648,20.71094 2.31641,0.0195 c 2.12107,0.168 2.12112,0.16801 5.12109,1.168 5.59554,8.05533 1.66141,22.837793 0.3125,31.874993 l -0.44922,3.20312 c -1.06721,6.62493 -2.66894,12.55025 -6.86328,17.92188 -5.19415,3.56995 -10.50295,3.18308 -16.58203,2.61719 -2.81125,-0.71757 -3.66351,-1.33792 -5.41797,-3.61719 -1.96618,-13.49539 0.73292,-34.776743 8.44922,-46.132803 3.74073,-4.65471 6.95131,-7.16938 13.11328,-7.05469 z"
     style="fill:#ebe2d4"
     id="path166" />
  <path
     d="m 538.32618,60.660247 -2.81446,0.0527 c -2.00781,0.007 -4.01563,0.0153 -6.02344,0.0254 -3.13395,0.0442 -6.26811,0.0883 -9.40234,0.10547 -2.06284,0.008 -4.12469,0.0174 -6.1875,0.0312 l -2.94922,0.0254 -2.84961,0.0215 -2.64258,0.0391 c -1.09095,0.014 -2.00097,0.0733 -2.88085,0.16992 5.8896,-0.0446 11.7804,-0.0792 17.66992,-0.10157 2.16886,-0.0101 4.33703,-0.0237 6.50586,-0.041 3.11252,-0.0242 6.22529,-0.0361 9.33789,-0.0449 l 2.95117,-0.0312 h 2.73047 l 1.24023,-0.008 c -1.53527,-0.16271 -3.09928,-0.23892 -4.68554,-0.24414 z m -37.19727,0.6875 c -0.92767,0.17761 -1.87161,0.41489 -3,0.79102 -1,2 -1,2 -1.39453,4.33594 -0.77913,5.66504 -1.69967,11.25459 -2.8711,16.84961 -2.45059,11.68347 -4.34557,23.441763 -6.17187,35.236313 -1.1492,7.43191 -2.2669,14.79726 -4.18359,22.07813 -1.47158,5.11476 -1.9277,10.21568 -2.37891,15.5 6.30075,0.0422 12.60149,0.0756 18.90234,0.0977 2.57422,0.008 5.14845,0.0173 7.72266,0.0273 3.79009,0.0255 7.58093,0.0513 11.37109,0.0625 l 3.60547,0.008 c 2.25335,0.0202 4.50633,0.0309 6.75977,0.0312 9.63549,-0.16698 15.77049,-4.05128 22.32617,-10.78906 6.05988,-7.26094 7.78447,-15.89623 7.64844,-25.16016 -0.45387,-3.0768 -1.81496,-4.7929 -4.0625,-6.88281 l -1.89844,-1.58217 -1.91406,-1.60547 -1.46094,-1.20703 c 6.62379,-6.40161 10.86723,-11.716173 12,-20.999993 0.6,-8.81998 0.55474,-14.67728 -5.4082,-21.55273 -3.12358,-2.84179 -6.7032,-4.38711 -10.53711,-5.1836 0.48229,0.2838 0.96969,0.76071 1.94531,1.73633 -6.19268,0.76526 -11.87953,1.03593 -18.06641,0.25391 -3.83979,-0.33234 -7.64456,-0.291 -11.49609,-0.25391 -5.90209,0.0523 -11.58294,-0.14843 -17.4375,-1 z m 23.70703,20.3125 c 4.26425,-0.0297 8.44795,1.91517 12.29297,4.47852 0.62619,9.11451 0.62615,9.11475 -1.8125,12.5625 -4.17914,2.746283 -8.05996,2.558443 -12.875,2.499993 l -2.12695,-0.0137 c -1.72852,-0.0118 -3.4571,-0.0297 -5.18555,-0.0488 -0.41571,-11.478143 -0.41567,-11.478463 2,-16.999993 2.56024,-1.73193 5.14848,-2.46072 7.70703,-2.47852 z m -3.18945,35.214843 c 4.69957,-0.0605 7.61853,0.2851 11.48242,3.26367 0.99998,0.99998 1,1.00004 1.09766,3.28516 l -0.0352,2.77734 -0.0273,2.78516 -0.0352,2.15234 h -2 l -1,3 c -4.58097,2.10251 -8.9234,2.24975 -13.875,2.125 l -2.08594,-0.0273 c -1.67981,-0.0234 -3.35953,-0.0592 -5.03906,-0.0977 -1.19126,-4.35683 -0.76678,-7.87965 -0.0625,-12.3125 l 0.58984,-3.80078 0.47266,-2.88672 c 2.72972,-0.0813 5.45715,-0.14062 8.1875,-0.1875 z"
     style="fill:#ece2d4"
     id="path165" />
  <path
     d="m 726.0625,60.570407 c -2.93261,0.56763 -2.93311,0.56739 -5.10156,2.80273 l -1.83203,2.76563 c -1.87649,2.44046 -3.73214,4.89578 -5.58594,7.35352 l -2.03906,2.70898 -2.0625,2.7207 -1.97656,2.62696 c -1.36579,1.80984 -2.61403,3.55013 -3.73828,5.45507 l 0.40234,0.13477 -2,3 c -1.87486,-0.12499 -1.87516,-0.12506 -4,-1 -1.24991,-3.06228 -1.25005,-3.06271 -2,-6 h 0.89258 l -0.0801,-0.26172 c -0.57062,-1.92308 -1.1552,-3.84207 -1.75,-5.75781 l -1,-3.10547 c -1.54542,-4.93739 -3.3646,-8.15371 -6.06248,-12.875 h -25 v 6 c 2.02745,2.75668 2.02745,2.75669 2.74609,5.23437 1.05994,3.85648 2.17023,7.56188 3.69141,11.26563 2.51659,5.63715 4.857,11.30924 6.75,17.187493 l 0.8125,3.3125 0.83984,3.27734 c 0.17426,4.05029 -0.57695,5.62957 -3.0039,8.8086 l -1.46094,1.78906 c -1.01628,1.313 -2.03324,2.62548 -3.05078,3.9375 -2.85325,3.59015 -5.6597,7.21216 -8.44727,10.85352 l -1.68945,2.20898 c -4.80688,6.27036 -12.1875,12.96365 -12.1875,21.125 2.74611,0.16539 5.48865,0.29662 8.23828,0.39062 l 3.38672,0.10938 c 4.251,0.26037 8.2034,0.45657 12.375,-0.5 2.13897,-1.69217 3.28056,-3.31609 4.68359,-5.64844 1.28917,-2.39235 1.29015,-2.39041 2.91797,-4.66406 1.6927,-2.34148 3.35849,-4.70123 5.02344,-7.0625 l 1.69531,-2.44141 0.33008,-0.46484 c 1.64915,-3.27988 3.89713,-5.87904 6.34961,-8.71875 l 2,1 c 0.27207,1.67775 0.615,3.34451 1,5 1.98667,2.98001 2.78885,5.28548 3.8125,8.6875 l 0.89453,3.01172 1.29297,3.30078 c 0.88138,2.32634 1.83647,4.31703 3.19141,6.40625 2.82384,2.48987 2.8241,2.48915 10.77929,2.29687 l 3.3418,-0.20312 c 3.89963,-0.12543 7.79269,-0.26718 11.6875,-0.5 0.61575,-2.71315 1.11907,-4.52619 0.43359,-7.25391 l -0.99609,-2.30859 c -1.19716,-2.78926 -2.47456,-5.51163 -3.83203,-8.22656 -2.53291,-4.95889 -4.98198,-9.9125 -7.11524,-15.05664 l -0.80273,-1.9668 -1.48828,-3.64453 c -1.45816,-4.30799 -3.23107,-8.44947 -1.11719,-12.73828 l 1.73047,-1.92969 1.95703,-2.28906 c 2.07295,-2.403313 4.02385,-4.872583 5.94727,-7.396483 0.85904,-1.1302 1.71942,-2.25877 2.58398,-3.38476 l 1.28516,-1.66797 c 4.49767,-5.84406 9.02229,-11.65624 13.66406,-17.38672 2.55549,-3.12792 4.69904,-6.27303 6.75,-9.75 -3.13411,-0.10297 -6.26705,-0.18521 -9.40234,-0.24414 l -3.84766,-0.0684 -3.80078,-0.12695 -3.65235,-0.0488 z"
     style="fill:#eae2d4"
     id="path164" />
  <path
     d="m 150.61133,0.00204738 c -18.87261,-0.003000005 -37.74653,-0.003000005 -56.61914,0.002 -10.56953,0.003 -21.13945,0.006 -31.70898,0.002 -7.10802,-0.003 -14.21621,-0.002 -21.32422,0.002 -4.04925,0.003 -8.09724,0.004 -12.14649,0.002 -3.7338,-0.003 -7.46737,-0.006 -11.201168,-0.002 -1.346442,0.002 -2.694573,0.005 -4.041016,0.006 l -3.8261721,-0.008 -3.433593,0.008 c -1.661869,1.1e-4 -2.843843,0.0226 -3.744141,0.15234 0.585007,-0.0447 1.206468,-0.0737 2.125,-0.0898 l 3.4375001,0.06218 V 2.1387673 h 13 v 1 l -2.957031,0.008 -3.855469,0.11719 -3.832031,0.0703 c -1.7744661,0.22501 -2.6708831,0.34983 -3.3300781,0.80469 73.0310391,-0.0169 146.0627091,-0.0318 219.0937491,-0.041 l 3.3125,-0.002 c 23.77466,-0.003 47.54956,-0.005 71.32422,-0.008 11.67006,-10e-4 23.3397,-0.003 35.00976,-0.004 h 3.52149 c 37.72128,-0.004 75.44278,-0.0123 113.16406,-0.0215 38.82105,-0.009 77.64185,-0.0155 116.46289,-0.0176 5.47653,-2.9e-4 10.95316,3.4e-4 16.42969,0 l 3.26953,-0.002 c 17.36446,-0.001 34.7293,-0.004 52.09375,-0.01 17.5299,-0.006 35.05995,-0.009 52.58984,-0.008 10.42252,8.8e-4 20.84506,1.6e-4 31.26758,-0.006 7.0092,-0.004 14.01815,-0.006 21.02735,-0.004 3.99387,0.002 7.9866,0.003 11.98047,0 3.68112,-0.004 7.36184,-0.007 11.04296,-0.004 l 3.98829,0.004 3.76562,-0.008 3.39453,0.006 c 1.74614,-2.8e-4 3.49276,0.0303 5.23633,0.125 -2.32262,-0.1552 -4.64971,-0.25019 -6.97656,-0.31641 l -2.07617,-0.0625 c -2.19044,-0.0654 -4.38165,-0.12482 -6.57227,-0.18359 -1.48431,-0.0432 -2.96884,-0.0868 -4.45313,-0.13086 -3.64031,-0.10619 -7.2813,-0.20749 -10.92187,-0.30572 v -1 c 4.2669,-0.83483 8.15222,-1.06491 12.49219,-0.87891 l 3.63281,0.14649 3.75,0.16992 3.82031,0.1582 c 3.10169,0.12924 6.20348,0.2642 9.30469,0.4043 V 0.13876738 l 4,0.99999992 c -1,-0.99999992 -0.99942,-0.99985992 -3.19922,-1.12499992 h -2.98242 l -3.43359,-0.008 c -1.93918,0.004 -3.87919,0.007 -5.81836,0.006 -3.6329,-0.005 -7.26554,-0.007 -10.89844,-0.004 -4.00244,0.004 -8.00538,0.002 -12.00781,0 -7.00909,-0.004 -14.01631,-0.004 -21.02539,-0.002 -10.51327,0.004 -21.02776,0.003 -31.54102,0 -18.76287,-0.005000005 -37.52619,-0.007 -56.28906,-0.004 -16.50879,0.003 -33.01661,0.005 -49.52539,0.004 l -3.30664,-0.002 c -4.43095,-3.1e-4 -8.86202,3.3e-4 -13.29297,0 -41.59901,-0.003000005 -83.19787,-0.001 -124.79688,0.004 -37.06388,0.005 -74.12752,0.005 -111.1914,0 -41.67739,-0.005 -83.35582,-0.007000005 -125.03321,-0.004 -4.43883,3.3e-4 -8.87757,-3.1e-4 -13.3164,0 h -3.31446 c -16.5153,0.001 -33.02962,5.6e-4 -49.54492,-0.002 z M 0.111332,2.9805673 c -0.0011,0.0105 -9.02e-4,0.0285 -0.002,0.0391 7.2e-4,-0.0127 0.0012,-0.0265 0.002,-0.0391 z m 3.019531,0.38086 0.02344,5.37304 0.03711,-2.0332 c 0.205224,-1.9625 0.181,-2.763 -0.06055,-3.33984 z m 3.9921879,0.78906 c -0.6758679,0.47966 -1.098616,1.32514 -1.9433599,3.04297 L 4.1289099,10.138767 H 3.16016 L 4.1289099,222.13876 c -0.06684,-26.27508 -0.119031,-52.55103 -0.1503909,-78.82617 -0.01506,-12.77377 -0.03288,-25.54657 -0.06641,-38.32031 -0.0301,-11.219553 -0.05317,-22.438603 -0.0625,-33.658203 -0.0036,-5.92572 -0.0066,-11.85164 -0.02539,-17.77734 -0.02094,-5.66891 -0.03797,-11.33886 -0.03711,-17.00781 0.0017,-2.08953 0.0028,-4.17806 0.002,-6.26758 -0.01641,-2.91124 -0.03423,-5.82309 -0.0293,-8.73438 l 0.0078,-2.63867 -0.02539,-2.44726 0.01758,-2.27344 C 4.5246569,8.9186573 4.5292179,8.9068973 7.1230809,4.1504873 Z m -2.994141,217.9882727 -3.9999999,-1 c 2.69e-4,0.33333 -2.7e-4,0.66667 0,1 z m -3.9999999,-1 0.9999999,-1 c 0.110317,-2.80645 0.1549551,-5.58912 0.1582031,-8.39648 l 0.01563,-2.69922 c 0.01546,-3.00949 0.02287,-6.01979 0.03125,-9.0293 0.0096,-2.14786 0.01888,-4.29551 0.0293,-6.44336 0.02713,-5.85085 0.04845,-11.70185 0.06836,-17.55273 0.02181,-6.10714 0.04934,-12.21515 0.07617,-18.32227 0.04999,-11.57364 0.09556,-23.14899 0.138672,-34.72266 0.04932,-13.17241 0.104734,-26.345173 0.160156,-39.517563 0.100187,-23.83803 0.192446,-47.67757 0.283203,-71.51563 -0.185003,1.09191 -0.5163171,1.75459 -1.960944,3.19922 -0.02685,-2.31233 -0.04633,-4.62507 -0.0625,-6.9374997 l -0.02539,-2.71094 c -0.007,0.55224 -0.03927,0.88673 -0.04102,1.5625 l 0.0078,2.59571 c -0.0027,2.9029797 -0.003,5.8059997 0.002,8.7089797 0.0038,2.13621 0.0056,4.27199 0.0059,6.4082 -0.0015,5.80207 0.0011,11.60419 0.0078,17.40625 0.0072,6.17211 0.01041,12.34547 0.01172,18.51758 0.0022,11.6488 0.0076,23.29652 0.01758,34.94531 0.01145,13.370143 0.01827,26.741173 0.02344,40.111323 0.010645,28.46417 0.029724,56.92842 0.05267,85.39258 z"
     style="fill:#9eba9e"
     id="path163" />
  <path
     d="m 189.12891,68.138767 c -3.3718,3.3718 -3.37183,3.37186 -15.375,32.605463 -0.10601,0.25879 -0.21418,0.51665 -0.32031,0.77539 1.15869,-2.666073 2.3176,-5.332713 3.48242,-7.996083 2.48573,-5.68544 4.9061,-11.38944 7.23633,-17.14063 0.78746,-1.81048 1.6109,-3.41747 2.58593,-4.96094 0.54749,-1.23525 1.13955,-2.03212 2.39063,-3.2832 z m 9.4043,13.375 c 0.39187,1.0283 0.8016,2.05099 1.05859,3.08789 l 0.49219,0.49219 c -0.50504,-1.20039 -1.02798,-2.39044 -1.55078,-3.58008 z m 1.58398,3.6582 -0.24219,0.73047 c 0.0812,0.44148 0.15755,0.88627 0.21289,1.34766 0.0236,-0.0472 0.0166,-0.0625 0.041,-0.11133 0.6239,0.6239 1.11111,1.38772 1.64844,2.10156 -0.54646,-1.3612 -1.09472,-2.72317 -1.66016,-4.06836 z m 8.00195,19.025383 c -0.0338,0.1995 -0.0696,0.39667 -0.10742,0.58985 l 0.11719,0.35156 -0.24219,0.24219 c -0.66305,2.94969 -1.84203,5.21492 -3.75781,7.75781 -0.15935,-0.15935 -0.24108,-0.32284 -0.38477,-0.48242 0.20475,1.10045 0.32544,2.23963 0.36524,3.51758 l 1.01953,-0.0352 3,9 -36,1 h 36 c 0.57409,1.72226 1.17119,3.43803 1.83203,5.12891 l 0.98047,2.43359 0.44141,1.09766 c -0.0938,-1.13552 0.20988,-2.15876 0.74609,-3.66016 l 2,7 3,-1 c -0.3998,-3.89808 -1.3711,-6.94712 -3.0625,-10.4375 -1.94331,-4.13919 -2.32309,-7.03186 -1.9375,-11.5625 0.83556,1.25334 1.47248,2.53388 2.11133,3.82031 -0.68681,-1.6327 -1.37214,-3.26577 -2.04297,-4.90625 -1.34063,-3.29418 -2.68167,-6.58671 -4.07813,-9.85547 z m -31.29687,8.97852 c -0.28549,0.82658 -0.65562,1.91237 -1.01953,2.98633 l 0.32617,0.97656 c 0.22373,-1.56611 0.46608,-2.70302 0.69336,-3.96289 z m -12.4707,9.69726 c -2.7229,6.0827 -5.44852,12.28946 -7.35938,18.59766 0.80861,-2.22427 1.83528,-4.36568 3.13672,-6.33203 0.57849,-0.18912 0.72838,-0.20069 1.13477,-0.32813 0.45276,-4.30241 1.61968,-8.08091 3.08789,-11.9375 z m 54.48242,6.72266 c 1.16228,2.8614 2.28238,5.73758 3.60742,8.54297 0.7098,1.55214 1.15631,3.02537 1.55469,4.51758 -0.68784,-2.57716 -1.62908,-5.06123 -2.80078,-7.73633 -0.79503,-1.77078 -1.58038,-3.54714 -2.36133,-5.32422 z m -51.70508,9.54297 c -1.63056,3.36982 -3.24879,6.69878 -5,10 1.75124,-3.30127 3.36942,-6.63014 5,-10 z m 46.79492,1.99023 c 0.11874,0.29639 0.23878,0.59226 0.35742,0.88868 0.94886,2.37383 1.89822,4.74749 2.84766,7.12109 l -0.80469,-2.04688 -1.07031,-2.70312 -1.05469,-2.67188 c -0.12477,-0.31442 -0.17723,-0.34211 -0.27539,-0.58789 z m -57.24219,1.375 c -0.63325,2.20008 -1.1642,4.41175 -1.55273,6.63477 0.28977,-2.24569 0.844,-4.46912 1.55273,-6.63477 z m 67.75586,1.9961 c 0.298,1.48651 0.54986,2.97541 0.69141,4.63867 -0.1373,-1.63429 -0.37633,-3.15951 -0.69141,-4.63867 z"
     style="fill:#87ae92"
     id="path162" />
  <path
     d="m 98.12891,70.138767 -0.15625,12.12695 c 0.19856,-1.973 0.35479,-2.42475 2.15625,-5.12695 h 2 l -0.0156,2.62891 c -0.10799,20.814913 0.18768,41.571743 1.0156,62.371083 l -4,1 c -1.34339,-2.68678 -1.13382,-4.77092 -1.14453,-7.7793 l -0.0195,-3.66992 -0.004,-3.98437 c -0.003,-1.35757 -0.006,-2.71471 -0.01,-4.07227 -0.006,-2.8472 -0.008,-5.69576 -0.008,-8.54297 1e-4,-3.64964 -0.014,-7.29767 -0.0312,-10.94726 -0.0111,-2.80434 -0.0122,-5.609703 -0.0117,-8.414063 -0.002,-1.98398 -0.0126,-3.96723 -0.0234,-5.95117 l -0.6836,53.378903 1.87305,0.54492 2.06288,0.4375 1,-1 c 1.70769,-0.0871 3.41902,-0.107 5.12891,-0.0977 l 3.13476,0.01 3.29883,0.0254 3.31055,0.0137 c 2.70898,0.0118 5.41802,0.0283 8.12695,0.0488 v -2 h -22 v -30 h 38 v 0.78125 c 0.36023,-0.15155 0.60541,-0.38666 1,-0.78125 v -7 h -39 V 78.138967 h 45 v -2 c -6.19298,0.0494 -12.385,0.0852 -18.57813,0.10937 -2.10677,0.0101 -4.21358,0.0237 -6.32031,0.041 -3.02833,0.0243 -6.05752,0.0361 -9.08594,0.0449 l -2.85351,0.0312 h -2.66992 l -2.33985,0.0137 c -2.42322,-0.27103 -4.05009,-1.0349 -6.15234,-2.24037 v -4 z m 6,41.999993 c 4.36789,0.0191 8.73563,0.0386 13.10352,0.0488 1.77799,0.004 3.55599,0.009 5.33398,0.0137 2.62892,0.0127 5.25778,0.0256 7.88672,0.0312 l 2.48437,0.004 c 1.56044,0.01 3.12117,0.0155 4.68164,0.0156 1.11895,-0.0362 1.8566,-0.0641 2.40821,-0.11328 z"
     style="fill:#a1b4a3"
     id="path161" />
  <path
     d="m 289.61133,69.017677 c 1.25916,0.0601 1.88852,0.0902 2.45313,0.23046 -0.56461,-0.14024 -1.19396,-0.17034 -2.45313,-0.23046 z m 2.45313,0.23046 c 0.5646,0.14025 1.06446,0.39063 2.06445,0.89063 -1,-0.5 -1.49985,-0.75038 -2.06445,-0.89063 z m 2.06445,0.89063 v 3.9375 c 0.22584,-1.12491 0.178,-2.30339 0,-3.9375 z m -2,2 -1,3 c -2.98456,1.9554 -4.26418,2 -8,2 l -1,3 v -2 c -1.74363,2.61545 -3.42947,5.27981 -5.38086,7.74414 l -1.24805,1.41211 -1.42968,1.63672 c -5.61965,6.37957 -10.94958,12.939473 -16.16797,19.648433 -2.36323,3.03998 -4.75222,6.05859 -7.15625,9.0664 l -1.49219,1.86719 c -2.60611,3.27874 -5.21636,6.55042 -7.92188,9.74805 l -1.85156,2.16992 c -1.19982,1.42376 -2.40033,2.84696 -3.60156,4.26953 l -1.73828,1.98437 -1.58985,1.89454 c -1.35403,1.57139 -1.93793,2.29455 -2.20117,3.77929 l 1.7793,1.7793 c 2.12136,-0.32461 4.07518,-0.96058 6.125,-1.58984 1.81587,-0.25906 3.30406,-0.2787 4.89062,-0.17579 -1.6595,-0.36937 -3.32053,-0.75604 -5.01562,-1.23437 v -2 l 2,-1 1,2 c 1.64539,-3.29078 3.262,-5.65539 5.62891,-8.41406 0.97929,-1.12622 1.95438,-2.25564 2.92578,-3.38867 l 1.51172,-1.76758 c 5.46872,-6.37693 10.75073,-12.90067 15.91796,-19.52344 3.13046,-4.0134 6.2869,-7.9948 9.53907,-11.906243 h -3.52344 l -1,2 -1,-4 3,-1 c 0.7332,-2.01497 0.73325,-2.01519 1,-4 l 4,1 -1.68164,5.04687 c 0.30661,-0.36563 0.6074,-0.73539 0.91601,-1.0996 l 1.39063,-1.63477 c 2.23198,-2.6321 4.46086,-5.26544 6.73047,-7.86523 l 1.33594,-1.5293 2.49609,-2.91797 2.23047,-2.5625 c 0.6759,-1.04139 1.1164,-1.89771 1.38476,-2.73242 z"
     style="fill:#86a585"
     id="path160" />
  <path
     d="m 616.69141,79.951267 c -6.16201,-0.11469 -9.37253,2.39994 -13.11328,7.05469 -7.71636,11.35614 -10.41541,32.637313 -8.44922,46.132803 1.75448,2.27928 2.6067,2.89961 5.41797,3.61719 6.07912,0.5659 11.38784,0.95279 16.58203,-2.61719 4.19437,-5.37167 5.79607,-11.2969 6.86328,-17.92188 l 0.44922,-3.20312 c 1.34892,-9.03726 5.28308,-23.819613 -0.3125,-31.874993 -2.99999,-1 -3,-1 -5.12109,-1.16797 z"
     style="fill:#b0c7ab"
     id="path159" />
  <path
     d="m 453.70118,220.00985 -3.67579,0.006 c -3.49507,-0.001 -6.54274,0.11092 -9.89648,1.12291 v 2 l -3,1 c 43.90132,0.0223 87.80375,0.0404 131.70508,0.0508 5.28809,0.001 10.57518,0.003 15.86328,0.004 h 3.19531 c 17.11455,0.004 34.2292,0.0123 51.34375,0.0215 17.61361,0.009 35.22623,0.0154 52.83985,0.0176 10.85747,10e-4 21.71479,0.004 32.57226,0.0117 7.50941,0.006 15.01989,0.008 22.5293,0.008 4.33062,-7.6e-4 8.66156,-0.002 12.99219,0.002 4.02249,0.005 8.0439,0.0101 12.0664,0.008 1.45692,-0.001 2.91418,-0.002 4.3711,-0.002 1.38443,0.003 2.76791,0.005 4.15234,0.008 l 3.73242,-0.006 3.25,0.002 c 0.14326,-0.007 0.13884,-0.0205 0.26563,-0.0273 l -1.03321,-0.0156 c -0.17083,0.005 -0.25308,0.0105 -0.44336,0.0156 -1.48827,-0.007 -2.97665,-0.0186 -4.46484,-0.0352 l -2.29883,-0.0137 c -1.87953,-0.0124 -3.75919,-0.0303 -5.63867,-0.0494 v -2 l -2.46484,0.25391 c -9.64029,0.85667 -18.90507,0.50391 -28.53516,-0.25391 v -1 c 15.6742,-0.66578 31.31095,-1.16101 47,-1 -42.9801,-0.0223 -85.9613,-0.0404 -128.94141,-0.0508 -5.17939,-0.001 -10.35771,-0.003 -15.53711,-0.004 h -3.1289 c -16.75453,-0.004 -33.50915,-0.0123 -50.26367,-0.0215 -17.24591,-0.009 -34.49237,-0.0154 -51.73829,-0.0176 -10.6301,-0.001 -21.26052,-0.004 -31.89062,-0.0117 -7.3522,-0.006 -14.70444,-0.008 -22.05664,-0.008 -4.24264,7.6e-4 -8.48393,0.002 -12.72656,-0.002 -3.93591,-0.005 -7.87269,-0.0101 -11.8086,-0.008 -1.43063,0.001 -2.86038,0.002 -4.29101,0.002 -1.3481,-0.003 -2.69683,-0.005 -4.04492,-0.008 z m 337.42773,3.12891 c -0.39105,0.39105 -0.63399,0.6265 -0.99414,0.77734 -0.14119,0.0662 -0.46803,0.13092 -0.66992,0.16602 0.6363,-0.12106 1.05327,-0.33257 1.66406,-0.94336 z"
     style="fill:#a6bea2"
     id="path158" />
  <path
     d="m 360.90821,69.015717 c -0.20964,0.0214 -0.46716,0.0456 -0.63672,0.0703 0.0412,-0.002 0.0892,-0.003 0.13476,-0.006 0.14345,-0.0298 0.3483,-0.0407 0.50196,-0.0645 z m 4.2207,0.12305 c -0.10279,0.6825 -0.2373,1.34294 -0.39258,1.98828 -0.1213,0.52554 -0.25661,1.05626 -0.42187,1.5293 -0.58122,1.86555 -1.43873,3.56669 -2.33985,5.26172 1.7429,-2.86637 2.62505,-5.3394 3.1543,-8.7793 z m -6.23633,0.41406 c -0.34339,0.23781 -0.65975,0.58074 -1.14648,1.1211 l -0.44336,0.67773 c 0.48802,-0.54189 1.06052,-1.36691 1.50195,-1.64648 0.0327,-0.0502 0.0597,-0.10147 0.0879,-0.15235 z m -55.26367,0.37696 c -0.77628,-0.0328 -1.82364,0.0602 -3.5,0.20898 1.42298,-0.11538 2.40108,-0.19391 3.14258,-0.19141 1.6313,0.006 2.1172,0.4064 3.66992,1.69141 l 1.1875,1.5 -1,2 c -1.86247,-0.19605 -2.52807,-0.33226 -3.88086,-0.70313 l 1.88086,4.70313 h 2 l 0.125,0.875 0.875,-0.875 c 0.5198,0.35565 0.99134,0.69856 1.42578,1.03711 -0.15596,-0.52226 -0.3771,-0.95504 -0.61328,-2.09961 l -0.48047,-2.22266 -0.33203,-1.71484 c 1.48086,1.38429 2.75282,2.76729 3.91797,4.23633 -1.58724,-2.36273 -3.27783,-4.66817 -5.14453,-6.90821 -1.43945,-1.078 -1.97963,-1.48236 -3.27344,-1.5371 z m -3.5,0.20898 c 0.28034,1.40168 0.65545,2.72314 1.0918,4 h 0.9082 c -1.31241,-2.06236 -1.31255,-2.06264 -2,-4 z m 1.41992,4.9043 c 1.44598,3.86589 3.51484,7.31829 5.79492,11.06054 1.34545,2.17182 2.68668,4.34627 4.02344,6.52344 l 0.36719,0.59961 -0.40625,-0.66797 c -3.19905,-5.30635 -3.19922,-5.3067 -3.19922,-6.41992 -3.11029,-3.53929 -4.87496,-6.90826 -6.58008,-11.0957 z m 10.72852,7.8125 c 0.41095,0.54095 0.76834,1.10742 1.09179,1.72265 l -0.24023,-1.43945 z m 5.70703,5.27734 c 0.14106,0.523 0.14453,1.01841 0.14453,2.00586 l 1,5 h -2 l -1,2 -1,-4 1,5 h 2 l -1,3.999993 c -1.06179,-1.7507 -2.12045,-3.503483 -3.17969,-5.255853 2.23698,3.697033 4.37835,7.422303 6.41406,11.240223 0.88025,1.69417 1.8018,3.36759 2.76563,5.01563 l 1,-2 1,0.59961 c -0.0327,-1.53283 -0.0374,-3.06696 0,-4.59961 l 1,-1 h 2 l 0.14062,1.12109 c 0.72759,0.62397 1.17672,1.0825 1.59961,1.56446 -2.47559,-4.58918 -4.98252,-9.155243 -7.67773,-13.623043 -1.02767,-1.68334 -2.04816,-3.37109 -3.0625,-5.0625 -0.37968,-0.67761 -0.76397,-1.33565 -1.14453,-2.00586 z m 26.67969,2.91016 c -0.47291,0.7799 -0.94232,1.56245 -1.41016,2.3457 l 1.875,3.75 c -0.67878,-2.38654 -1.03804,-3.97026 -0.46484,-6.0957 z m 6.95117,3.36328 c -0.51722,0.48872 -1.05591,0.90628 -1.73633,1.28515 -0.83801,2.28074 -1.86548,4.419613 -3.00391,6.503903 1.5624,-2.607173 3.14483,-5.201813 4.74024,-7.789053 z m -13.16406,7.199213 c -0.85305,1.47192 -1.71552,2.89876 -2.66016,4.24414 0.5554,-0.32781 1.14127,-0.61424 1.78906,-0.80664 l -0.45117,-0.9043 c 0.54703,-1.17146 0.99967,-1.90314 1.32227,-2.5332 z m -6.67188,8.91601 c -0.14023,0.13262 -0.27515,0.26714 -0.41992,0.39844 0.0423,0.0702 0.0711,0.0979 0.11523,0.17187 0.09,-0.20228 0.20845,-0.37441 0.30469,-0.57031 z m 10.07031,0.0859 -1.31054,2.10937 -1.1836,1.91797 c -0.39209,0.48035 -0.66003,0.79954 -0.93945,1.05469 l -0.28711,0.44926 -0.082,-0.16016 c -0.53782,0.35999 -1.27282,0.61177 -2.918,1.16016 l 2,1 c 1.06548,-1.59822 2.12411,-3.20312 3.12305,-4.84375 l 1.24023,-2.08594 z m -15.51953,6.66406 c 0.61572,1.13234 1.04371,2.39802 1.32813,4.17188 l 0.0449,3.71093 c 0.044,2.0416 0.0841,4.08297 0.0996,6.125 0.0135,2.11787 0.0431,4.23396 0.0781,6.35157 0.0249,1.34113 0.0491,2.68228 0.0723,4.02343 0.0176,1.91288 -0.39352,4.20477 0.25976,6.00977 -0.0996,-0.42986 -0.14755,-0.93049 -0.19726,-2.02539 l 0.0156,-3.28516 0.01,-3.54492 0.0254,-3.73242 0.0137,-3.74414 c 0.0116,-3.06434 0.0281,-6.12899 0.0486,-9.19332 h 0.95703 c 0.002,-0.0254 0.006,-0.0507 0.008,-0.0762 l -0.83203,-1.75196 c -0.57059,-1.09397 -1.2448,-2.06956 -1.93164,-3.03906 z m 7.7461,26.94922 c 0.009,0.30986 0.0162,0.61982 0.0254,0.92969 l 0.0273,-0.0117 c -0.0203,-0.30587 -0.0329,-0.61209 -0.0527,-0.91797 z m 2.1875,1.66406 c -0.0648,0.83907 -0.11954,1.59484 -0.22852,1.96289 0.11139,-0.39204 0.16792,-1.02349 0.22852,-1.96289 z m -0.24024,2.0293 c -0.15091,0.47739 -0.39775,0.72787 -0.89453,1.22465 0.49844,-0.49844 0.74759,-0.7499 0.89453,-1.22461 z m -0.89453,1.22465 c -2.99988,0.125 -3.00012,0.125 -6,0 2.99999,0.125 3.00001,0.125 6,0 z m -6,0 c -0.35369,-0.35369 -0.47618,-0.5815 -0.62891,-0.83984 0.1677,0.30026 0.37201,0.58294 0.62891,0.83984 z"
     style="fill:#85b093"
     id="path157" />
  <path
     d="m 97.12891,69.138767 v 73.999993 l 0.0644,0.0176 0.6836,-53.378903 c -9e-5,-0.0163 9e-5,-0.0326 0,-0.0488 l 0.01,-3.68164 -0.006,-3.24414 c 0.0245,-0.26431 0.0699,-0.31971 0.0918,-0.53711 l 0.1562,-12.127 h 2 v 4 c 2.10226,1.20548 3.7291,1.96934 6.15234,2.24023 l 2.33985,-0.0137 h 2.66992 l 2.85351,-0.0312 c 3.02843,-0.009 6.05759,-0.0207 9.08594,-0.0449 2.10674,-0.0173 4.21353,-0.031 6.32031,-0.041 6.19317,-0.0242 12.38512,-0.06 18.57813,-0.10943 v -1 l -1,-3 h -2 v -2 h -12 v -1 z"
     style="fill:#94ba9e"
     id="path156" />
  <path
     d="m 186.73828,71.421967 c -0.97504,1.54348 -1.79847,3.15044 -2.58593,4.96094 -2.33024,5.75123 -4.75058,11.45515 -7.23633,17.14063 -1.1959,2.73442 -2.38663,5.47178 -3.57617,8.208973 -0.81934,1.88584 -1.63966,3.77126 -2.46094,5.65625 -1.24531,2.8307 -2.49031,5.66083 -3.7207,8.49805 l -1.16993,2.70507 c -2.45312,5.52467 -4.10578,10.3383 -4.7246,16.21875 1.8767,-0.58849 2.60475,-0.72324 4.86523,-0.67187 v -2 h 2 l -0.5625,-2.3125 c -0.4375,-2.68748 -0.43749,-2.68752 0.5625,-5.6875 3.06248,-1.18749 3.06252,-1.18751 6,-2 v -3 h 16 l -15,-1 v -4 l 0.67383,2.02344 c 0.36391,-1.07397 0.73404,-2.15975 1.01953,-2.98633 0.52904,-2.93255 1.15538,-5.54517 2.55664,-8.72461 l 1.34766,-3.10938 1.40234,-3.203113 v -6 h -1.85547 c -0.77953,1.56641 -1.43407,3.20693 -2.14453,5 h -2 c 0.39634,-1.27009 0.81268,-2.52691 1.24023,-3.77734 0.0656,-0.19925 0.13159,-0.39843 0.19727,-0.59766 l 0.80859,-2.46094 c 0.32071,-0.92058 0.56322,-1.31355 0.7461,-1.77148 1.48309,-3.86193 3.13622,-7.6494 5.00781,-11.39258 l 1.38477,0.92383 -0.38477,-1.92383 c 0.77686,-2.55253 1.17228,-3.73062 1.60937,-4.7168 z m 11.35157,8.79688 -0.96094,1.91992 2.46289,2.46289 c -0.36475,-1.47169 -0.86618,-2.89609 -1.50195,-4.38281 z m -2.13477,1.33398 c -3.8e-4,0.0138 0.0122,0.0606 0.0117,0.0742 l 0.0195,-0.0586 z m -2.82617,0.58594 -0.19141,0.19141 c 0.0637,0.1719 0.1277,0.34371 0.19141,0.51562 z m 6.74609,3.76367 -0.74609,2.23633 h -4.04492 c 0.72335,1.95981 1.45136,3.91792 2.17187,5.87891 0.57971,1.57409 1.16173,3.14833 1.7461,4.7207 0.70695,1.903223 1.4063,3.808873 2.10547,5.714833 1.56663,0.39115 3.04522,0.76048 4.53906,1.45703 -0.34007,-0.86096 -0.68186,-1.72136 -1.01758,-2.58398 l -0.84375,-2.14453 c -0.019,-0.0591 -0.0153,-0.0692 -0.0332,-0.125 l -0.45508,-0.97266 c -1.1626,-2.250653 -1.16274,-2.250793 -4.16797,-3.945303 -0.43006,-6.02083 -0.40638,-6.15595 0.95898,-8.88867 -0.0553,-0.4614 -0.13165,-0.90618 -0.21289,-1.34766 z"
     style="fill:#83aa87"
     id="path155" />
  <path
     d="m 192.12891,80.138767 -2.73242,2.49023 c -1.4815,1.9399 -1.97341,4.16177 -2.83008,7.07227 -0.75005,2.51488 -1.55238,4.96324 -2.4375,7.4375 l -2,1 -1.40234,3.203113 -1.34766,3.10938 c -2.00327,4.54539 -2.5055,7.47602 -3.25,12.6875 l 27.98047,-0.96484 c -0.0398,-1.27796 -0.16049,-2.41712 -0.36524,-3.51758 -2.27771,-2.52979 -2.73151,-5.10894 -3.61523,-8.51758 0.35345,0.0825 0.64075,0.23012 0.97852,0.31445 -0.69917,-1.90596 -1.39852,-3.81161 -2.10547,-5.714833 -0.58437,-1.57237 -1.16639,-3.14661 -1.7461,-4.7207 -0.72051,-1.96099 -1.44851,-3.91909 -2.17187,-5.87891 h -0.95508 l -1,-4 v -1.29297 c -0.0637,-0.17191 -0.12767,-0.34372 -0.19141,-0.51562 l -0.80859,0.80859 z"
     style="fill:#f3f0ea"
     id="path154" />
  <path
     d="m 289.61133,69.017677 -3.2168,0.008 h -3.64062 c -1.98203,0.008 -3.96326,0.0148 -5.94531,0.0176 -3.48834,0.003 -6.97653,0.009 -10.46485,0.0195 -3.61629,0.0113 -7.2333,0.0182 -10.84961,0.0234 -7.78849,0.0109 -15.57676,0.0296 -23.36523,0.0527 v 9 h 50 v 2 l 1,-3 c 3.73584,0 5.01541,-0.0446 8,-2 l 1,-3 2,3 v -5 c -2,-1 -1.99924,-1.00084 -4.51758,-1.12109 z"
     style="fill:#95b89c"
     id="path153" />
  <path
     d="m 55.54493,220.11923 c -10.43799,0.0173 -20.87597,0.1191 -31.31446,0.38476 l -2.47265,0.0645 c -2.331755,0.0576 -4.662681,0.11722 -6.994144,0.18554 l -2.09375,0.0645 c -1.919765,0.0577 -4.224458,-0.28863 -6.0410161,0.38672 0.367093,-0.0849 0.74099,-0.13854 1.5937501,-0.1875 l 2.792969,0.008 h 3.154297 l 3.43164,0.0156 3.494144,0.004 c 3.69876,0.006 7.39696,0.0186 11.0957,0.0312 2.50057,0.005 5.00138,0.01 7.50195,0.0137 6.145,0.0111 12.29058,0.0278 18.43555,0.0488 v 1 l -3.20898,0.0762 c -3.94725,0.0945 -7.89473,0.19512 -11.8418,0.29688 -1.70499,0.0432 -3.41018,0.0849 -5.11524,0.125 -2.45755,0.0581 -4.91565,0.12095 -7.37304,0.18554 l -2.29297,0.0508 c -4.14447,0.11477 -8.09488,0.5 -12.16797,1.26563 -4.306594,0.32431 -7.2723551,0.4851 -11.0000001,-2 3.342469,2.22831 3.3424871,2.22813 9.3164061,2.25977 l 2.621094,-0.0176 c 2.908999,0.006 5.81757,0.01 8.72656,0 2.08245,-0.008 4.16559,-0.0125 6.24805,-0.0137 4.33306,5.3e-4 8.665,-6.2e-4 12.99805,-0.0117 5.36279,-0.0163 10.72689,-0.0281 16.08984,-0.0293 v -0.18781 l 3.73242,-0.0762 c 4.55851,-0.094 9.11745,-0.19473 13.67578,-0.29688 1.97489,-0.0434 3.94887,-0.085 5.92383,-0.125 2.83473,-0.0576 5.66933,-0.12061 8.50391,-0.18554 l 2.68554,-0.0508 c 4.59975,-0.11178 8.48901,-1.39173 13.00977,-1.38671 l 2.88867,-0.004 3.17969,0.0117 h 3.3418 c 3.65773,7e-4 7.31493,0.008 10.97265,0.0156 2.53061,0.002 5.06119,0.003 7.5918,0.004 5.98874,0.003 11.97806,0.0115 17.9668,0.0215 6.81727,0.0112 13.63388,0.0165 20.45117,0.0215 2.98628,0.002 5.97267,0.009 8.95898,0.0117 0.52863,-0.0158 1.04784,-0.075 1.58399,-0.0762 0.95548,-0.002 1.92498,0.0111 2.91992,0.0176 l 2.47656,0.004 c 2.60831,0.006 5.21594,0.0185 7.82422,0.0312 1.76883,0.005 3.5378,0.01 5.30664,0.0137 4.33521,0.011 8.67068,0.0283 13.00586,0.0488 v 0.15234 c 7.28837,-0.0459 14.57675,-0.0947 21.86523,-0.13867 l 2.13477,-0.0136 v -1 c -24.01325,-0.14791 -48.02572,-0.29024 -72.03906,-0.42383 -11.70317,-0.065 -23.40821,-0.13061 -35.11133,-0.20312 -10.25519,-0.0638 -20.51038,-0.12425 -30.76563,-0.17969 -5.45041,-0.0289 -10.89923,-0.0586 -16.34961,-0.0937 -10.44062,-0.0698 -20.88037,-0.13641 -31.31835,-0.11914 z"
     style="fill:#a8b8a6"
     id="path152" />
  <path
     d="m 788.78125,26.138767 c -1.26441,3.49809 -1.88397,6.67632 -1.89257,10.51562 l 0.0273,2.08008 c 0.005,2.3727 0.0125,4.74457 0.0332,7.11719 0.0157,1.73179 0.0284,3.46347 0.0371,5.19531 0.024,5.69715 0.0641,11.39483 0.11524,17.0918 0.018,1.99946 0.036,3.99857 0.0527,5.99805 0.11023,13.39375 0.24803,26.788323 0.40234,40.181633 0.0621,5.37515 0.12228,10.74981 0.18164,16.125 0.12766,11.56526 0.25764,23.13011 0.39071,34.69531 l 3,-1 c 0.1413,-11.4628 0.27697,-22.92571 0.4043,-34.38867 0.0648,-5.88767 0.12928,-11.77452 0.20117,-17.66211 0.32489,-26.071313 2.74096,-53.904253 -0.59766,-80.064443 -0.003,0.0389 -0.005,0.0763 -0.008,0.11523 h -1 l -1,-6 z"
     style="fill:#a3bba2"
     id="path151" />
  <path
     d="m 521.64649,116.87509 -2.33008,0.0762 c -2.73039,0.0469 -5.45773,0.10624 -8.1875,0.1875 l -0.47266,2.88672 -0.58984,3.80078 c -0.7043,4.43292 -1.12877,7.95561 0.0625,12.3125 1.67956,0.0385 3.35922,0.0743 5.03906,0.0977 l 2.08594,0.0273 c 4.95167,0.12475 9.29396,-0.0225 13.875,-2.125 l 1,-3 h 2 l 0.0352,-2.15234 0.0273,-2.78516 0.0352,-2.77734 c -0.0977,-2.28519 -0.0977,-2.28519 -1.0977,-3.28519 -3.86395,-2.97862 -6.78278,-3.32418 -11.48242,-3.26367 z"
     style="fill:#b2c9ab"
     id="path150" />
  <path
     d="m 175.12891,114.13876 v 4 l 15,1 h -16 v 3 c -2.93749,0.8125 -2.93751,0.8125 -6,2 -1,2.99999 -1,3.00001 -0.5625,5.6875 l 0.5625,2.3125 h -2 v 2 c -2.74999,-0.0625 -2.75001,-0.0625 -6,1 -2.75275,4.15915 -4.36312,9.06421 -5,14 h 7 c 1.75124,-3.30127 3.36942,-6.63014 5,-10 l 5,-13 36,-1 -3,-9 -29,1 z"
     style="fill:#8caf8d"
     id="path149" />
  <path
     d="m 524.83594,81.660247 c -2.55859,0.0178 -5.14675,0.74656 -7.70703,2.47852 -2.41571,5.52162 -2.41571,5.52166 -2,16.999993 1.72848,0.0191 3.457,0.0371 5.18555,0.0488 l 2.12695,0.0137 c 4.81512,0.0584 8.69579,0.24634 12.875,-2.499993 2.43869,-3.44781 2.4387,-3.44783 1.8125,-12.5625 -3.84509,-2.56339 -8.02864,-4.50818 -12.29297,-4.47852 z"
     style="fill:#b1caac"
     id="path148" />
  <path
     d="m 111.54883,222.01376 -2.88867,0.004 c -4.52078,-0.005 -8.40999,1.27493 -13.00977,1.38671 l -2.68554,0.0508 c -2.83459,0.0649 -5.66916,0.12791 -8.50391,0.18554 -1.97497,0.04 -3.94893,0.0816 -5.92383,0.125 -4.55835,0.10215 -9.11725,0.20288 -13.67578,0.29688 l -3.73242,0.0761 v 1 c 18.42024,0.0223 36.84146,0.0403 55.26172,0.0508 8.95765,0.005 17.9154,0.0103 26.87305,0.0215 7.86563,0.01 15.73005,0.0184 23.5957,0.0215 4.15732,0.001 8.31534,0.002 12.47265,0.008 0.96418,0.002 1.92839,5.4e-4 2.89258,0.002 -1.89661,-0.18764 -2.54219,-0.40146 -5.0957,-2.1038 2.33002,-0.77667 4.58521,-0.97048 6.88281,-1.03906 -2.98632,-0.003 -5.97269,-0.009 -8.95898,-0.0117 -6.81732,-0.005 -13.63386,-0.0103 -20.45117,-0.0215 -5.98877,-0.01 -11.97803,-0.0181 -17.9668,-0.0215 -2.53063,-0.001 -5.06117,-0.002 -7.5918,-0.004 -3.65774,-0.008 -7.3149,-0.0149 -10.97265,-0.0156 h -3.3418 z m 105.58008,2.125 c -5.64943,0.90559 -11.20032,1.07744 -16.85156,1.125 l 3.35351,-0.004 c 4.59952,0.004 8.95404,-0.39768 13.49805,-1.121 z"
     style="fill:#d2dad1"
     id="path147" />
  <path
     d="m 96.12891,69.138767 v 79.999993 h 52 v -9 h -44 v -28 h 37 v -1 h -38 v 30 h 22 22 l -1,3 -2.25,-0.125 c -2.6795,-0.0731 -2.67952,-0.0731 -4.53516,1.0625 -0.7193,0.34506 -1.45872,0.65932 -2.21484,0.94727 v 0.11523 c -0.17142,0.0312 -0.34228,0.04 -0.51367,0.0703 -11.77265,4.25052 -27.54755,2.11392 -39.48633,1.9297 v -5 -73.999993 z"
     style="fill:#c3d3c2"
     id="path146" />
  <path
     d="m 230.12891,143.13876 v 6 h 63 v -5 c -8.12101,0.91391 -16.18901,1.2164 -24.35938,1.24023 -2.00528,0.01 -4.01057,0.0409 -6.01562,0.0723 -6.85404,0.027 -13.14964,-0.6403 -19.60938,-2.07813 -1.58659,-0.10292 -3.07472,-0.0833 -4.89062,0.17579 -2.04985,0.62927 -4.00361,1.26523 -6.125,1.58984 z"
     style="fill:#a3c4ab"
     id="path145" />
  <path
     d="m 100.12891,77.138767 c -2,2.99999 -2.00081,3.00097 -2.24805,5.66406 l 0.006,3.24414 -0.01,3.68164 c 0.0109,2.00027 0.0217,3.99971 0.0234,6 -5.2e-4,2.80441 6.1e-4,5.609673 0.0117,8.414063 0.0172,3.64966 0.0314,7.29756 0.0312,10.94726 -5.9e-4,2.84725 0.002,5.69572 0.008,8.54297 0.004,1.35759 0.007,2.71468 0.01,4.07227 l 0.004,3.98437 0.0195,3.66992 c 0.0107,3.00843 -0.19888,5.09247 1.14453,7.7793 l 4,-1 c -0.82794,-20.79969 -1.12359,-41.55582 -1.01563,-62.371083 l 0.0153,-2.62891 z"
     style="fill:#74977d"
     id="path144" />
  <path
     d="m 2.12891,2.1387673 0.07031,2.33594 0.05469,3.03906 0.07031,3.0234397 c -0.05423,0.72231 -0.163265,0.98263 -0.234375,1.40234 -0.09076,23.83854 -0.183014,47.67712 -0.283203,71.51563 -0.05542,13.17265 -0.110839,26.344893 -0.160156,39.517563 -0.04312,11.5739 -0.08868,23.14879 -0.138672,34.72266 -0.02683,6.10724 -0.05436,12.21501 -0.07617,18.32227 -0.01991,5.85099 -0.04123,11.70176 -0.06836,17.55273 -0.01042,2.1479 -0.01972,4.29546 -0.0293,6.44336 -0.0084,3.00957 -0.01579,6.01975 -0.03125,9.0293 l -0.01563,2.69922 c -0.00324,2.80742 -0.047875,5.58997 -0.158194,8.39648 l -0.9999999,1 3.9999999,1 L 3.16016,10.138767 H 3.12891 L 3.1543,8.7344673 3.13086,3.3614273 c -0.1742341,-0.4161 -0.4086821,-0.72641 -1.00195,-1.22266 z"
     style="fill:#94aa92"
     id="path143" />
  <path
     d="m 125.12891,141.13876 v 2 c -2.70898,-0.0205 -5.41792,-0.037 -8.12695,-0.0488 l -3.31055,-0.0137 -3.29883,-0.0254 -3.13476,-0.01 c -1.70992,-0.009 -3.42119,0.0108 -5.12891,0.0979 l -1,1 -2.0625,-0.4375 -1.9375,-0.5625 v 5 l 1,-3 1,1 c 1.85965,-0.30106 3.71262,-0.64383 5.5625,-1 4.03998,-0.62928 8.08771,-0.88203 12.14062,-0.91602 6.75486,-0.0566 13.52474,0.4937 20.29688,0.91602 v 0.88477 c 0.75613,-0.28795 1.49554,-0.60221 2.21484,-0.94727 1.85564,-1.13556 1.85565,-1.13556 4.53516,-1.0625 l 2.25,0.125 1,-3 z m -28,7 c 11.93883,0.18422 27.71363,2.32084 39.48633,-1.92969 -13.13052,2.32499 -26.1794,2.13502 -39.48633,1.92969 z"
     style="fill:#97b69a"
     id="path142" />
  <path
     d="m 362.37891,68.826267 c -0.77548,0.0746 -1.40887,0.13687 -1.97266,0.25391 0.61367,-0.0323 1.37609,-0.082 1.81641,-0.082 0.74998,0 1.46879,0.0469 2.90625,0.14063 z m 2.75,0.3125 c -0.0845,0.73979 -0.24573,1.35203 -0.39258,1.98828 0.15528,-0.64535 0.28979,-1.30577 0.39258,-1.98828 z m -6.32422,0.56641 c -1.71205,1.0843 -3.39618,3.75102 -7.98633,11.02734 l -1.50195,2.40625 -1.56055,2.40625 -1.45898,2.34375 -1.33594,2.10937 c -1.06196,2.72979 -0.62056,4.36819 0.16797,7.14063 l 5,-2 c -0.068,0.19513 -0.17911,0.35979 -0.25,0.55273 2.23824,-1.24629 2.9552,-2.40852 6.34961,-7.94921 l 1.71289,-2.91602 c 2.52387,-4.10442 5.00515,-7.77934 6.37305,-12.16992 -0.82491,2.36119 -2.16725,4.20369 -4.18555,6.48242 v -4 l -5,1 c 1.10633,-2.29169 2.29765,-4.31957 3.67578,-6.43359 z m -5.67578,7.43359 c 1.10149,3.30447 0.95313,3.98682 -0.1875,7.125 l -0.73047,2.13281 c -1.08198,1.74212 -1.08212,1.74222 -3.19531,2.48438 l -1.88672,0.25781 c 1.56635,-4.30746 3.68346,-8.06188 6,-12 z"
     style="fill:#84a784"
     id="path141" />
  <path
     d="m 337.58008,105.04306 c -2.87741,0.85465 -4.80795,3.13366 -6.10547,6.04882 0.2278,0.382 0.33828,0.50202 0.6543,1.04688 -0.55152,3.50722 -1.69536,6.70642 -3,10 v 25 l 4.97266,-1.98828 c -0.009,-0.30988 -0.0166,-0.61983 -0.0254,-0.92969 -0.24231,-3.73122 -0.46217,-7.46254 -0.64844,-11.19726 -0.0733,-1.3729 -0.15586,-2.74544 -0.24805,-4.11719 -0.13122,-1.97694 -0.22654,-3.95648 -0.32031,-5.93555 l -0.20703,-3.60156 c 0.15347,-1.04172 0.37496,-1.90195 0.66797,-2.65039 0.006,-0.0153 0.0116,-0.0317 0.0176,-0.0469 0.28227,-0.70923 0.63288,-1.31642 1.05079,-1.88086 0.0349,-0.0475 0.0773,-0.10351 0.11328,-0.15039 0.89399,-1.15729 2.08894,-2.15137 3.62695,-3.50195 1.7932,-3.16644 1.79322,-3.16647 3,-6 l -3,1 z m -8.45117,17.0957 -0.0352,-0.0762 c -0.002,0.0254 -0.006,0.0508 -0.008,0.0762 z"
     style="fill:#7ca788"
     id="path140" />
  <path
     d="m 240.12891,139.13876 -2,1 v 2 c 8.29342,2.3403 16.01008,3.34648 24.625,3.3125 2.00506,-0.0314 4.01033,-0.0625 6.01562,-0.0723 8.17042,-0.0238 16.23832,-0.32629 24.35938,-1.2402 v -3 h -52 z"
     style="fill:#92b397"
     id="path139" />
  <path
     d="m 212.12891,115.13876 c -0.3856,4.53075 -0.006,7.42321 1.9375,11.5625 1.69144,3.49046 2.66269,6.53933 3.0625,10.4375 l -3,1 -2,-7 c -0.84032,2.35291 -1.23364,3.49812 -0.15625,5.8125 1.21554,2.21795 1.21555,2.21796 2.22656,4.76562 l 1.05469,2.67188 1.07031,2.70312 0.80469,2.04688 h 8 c -0.34356,-4.03684 -0.99972,-7.3093 -2.6875,-11 -1.99704,-4.22816 -3.73497,-8.52253 -5.4375,-12.875 -1.39247,-3.59644 -2.72018,-6.89278 -4.875,-10.125 z"
     style="fill:#93b299"
     id="path138" />
  <path
     d="m 343.12891,93.138767 -1.34766,2.33594 -1.71484,3.03906 c -1.72265,3.023423 -1.72266,3.023433 -2.9375,5.624993 l 1,2 3,-1 c -1.20679,2.83354 -1.2068,2.83355 -3,6 0.27237,-0.43378 0.53639,-0.87221 0.80469,-1.30859 0.60758,-1.29026 1.26995,-2.56304 2.1875,-3.67774 0.003,-0.005 0.005,-0.009 0.008,-0.0137 l 2,-2 2,1 c -1.09368,1.8188 -2.20034,3.62995 -3.3125,5.4375 l -1.86328,3.05859 c -0.5628,0.7725 -0.94749,1.29073 -1.30469,1.68946 l -0.23242,0.36523 c 0.27943,-0.25515 0.54735,-0.57433 0.93945,-1.05469 l 1.1836,-1.91797 1.31054,-2.10937 1.3418,-2.21875 c 2.68184,-4.30333 5.25976,-8.434773 6.9375,-13.249993 l -5,2 z m -5,17.999993 c -1.53802,1.35059 -2.73296,2.34465 -3.62695,3.50195 0.89281,-1.16447 2.07674,-2.15994 3.62695,-3.50195 z m -3.74023,3.65234 c -0.41791,0.56444 -0.76852,1.17163 -1.05079,1.88086 0.281,-0.71085 0.63391,-1.31476 1.05079,-1.88086 z m 3.63085,1.13086 c -0.60966,0.45547 -1.3591,0.70629 -2.89062,1.2168 1.64522,-0.54841 2.38017,-0.80017 2.91797,-1.16016 z m -4.69921,0.79688 c -0.29301,0.74845 -0.5145,1.60867 -0.66797,2.65039 0.15342,-1.04138 0.37607,-1.89997 0.66797,-2.65039 z m -0.46094,6.25195 c 0.0938,1.97908 0.18909,3.9586 0.32031,5.93555 -0.13122,-1.97691 -0.22654,-3.95651 -0.32031,-5.93555 z m 0.56836,10.05274 c 0.20154,4.04091 0.43366,8.07816 0.70117,12.11523 -0.2675,-4.03699 -0.49964,-8.0744 -0.70117,-12.11523 z"
     style="fill:#8bae8c"
     id="path136" />
  <path
     d="m 175.12891,114.13876 v 4 h 29 l 0.5,2 1.5,3 -1.72266,-0.25391 -2.33984,-0.30859 -2.28516,-0.31641 c -2.76104,-0.20922 -2.76107,-0.20922 -5.90234,0.34766 -4.27456,0.60556 -8.38023,0.64173 -12.6875,0.59375 l -2.36133,-0.0137 c -1.90041,-0.0116 -3.80082,-0.0296 -5.70117,-0.0488 v 2 h 34.41016 c -0.13223,-0.64964 -0.16831,-1.36407 -0.12305,-2.13672 l -2.28711,-6.86328 -29,1 z"
     style="fill:#a9c4af"
     id="path135" />
  <path
     d="m 184.12891,77.138767 c -1.87163,3.74326 -3.52468,7.53057 -5.00781,11.39258 0.24701,-0.61851 0.43325,-1.24345 1.00781,-2.39258 l 4,1 -1.3125,1.0625 c -1.10278,1.26616 -1.86511,2.5754 -2.54297,3.9375 h 1.85547 v 6 l 2,-1 c 0.88514,-2.4743 1.68743,-4.92257 2.4375,-7.4375 0.85668,-2.91056 1.34855,-5.13234 2.83008,-7.07227 l -0.0801,0.0723 c -1.58197,1.44134 -1.58206,1.4414 -3.18748,2.43747 l -3,-1 c 0.75304,-1.88259 1.52803,-3.06793 2.75977,-4.20117 l -0.375,-1.875 z m -6.75977,16.22266 c -0.42756,1.25045 -0.84388,2.50722 -1.24023,3.77734 0.41206,-1.25951 0.82558,-2.51865 1.24023,-3.77734 z"
     style="fill:#93b794"
     id="path134" />
  <path
     d="m 103.12891,104.13876 v 2 l 38,1 1,4 v -7 z"
     style="fill:#a0c0a5"
     id="path133" />
  <path
     d="m 174.12891,119.13876 v 3 h -2 l -1,2 2,1 v -2 c 1.90036,0.0192 3.80075,0.0372 5.70117,0.0488 l 2.36133,0.0137 c 4.30728,0.048 8.41293,0.0118 12.6875,-0.59375 3.14128,-0.55688 3.14129,-0.55688 5.90234,-0.34766 l 2.28516,0.31641 2.33984,0.30859 1.72266,0.25391 -2,-4 z"
     style="fill:#8dba9b"
     id="path132" />
  <path
     d="m 791.12891,217.13876 c 0.0425,1.9995 0.0408,4.00047 0,6 0.0408,-1.99958 0.0425,-4.00046 0,-6 z m 0,6 c -0.4386,0.4386 -0.68153,0.63087 -0.99414,0.77734 0.36016,-0.15084 0.60308,-0.38628 0.99414,-0.77734 z m -6.88086,-3.03125 c -13.71782,-0.004 -27.40384,0.44868 -41.11914,1.03125 v 1 c 9.63035,0.75784 18.89461,1.1106 28.53516,0.25391 l 2.46484,-0.25391 v 2 c 1.87953,0.0191 3.75909,0.037 5.63867,0.0488 l 2.29883,0.0137 c 1.48823,0.0165 2.97653,0.0285 4.46484,0.0352 0.19029,-0.005 0.27253,-0.0109 0.44336,-0.0156 l -1.4082,-0.0195 -2.50391,-0.0273 -1.93359,-0.0353 1,-3 8,-1 c -1.96118,-0.0201 -3.92117,-0.0307 -5.88086,-0.0312 z m 5.19727,3.97852 c -0.11142,0.0191 -0.29851,0.0338 -0.43946,0.0469 0.1596,-0.0133 0.31121,-0.0286 0.43946,-0.0469 z"
     style="fill:#a3b99b"
     id="path131" />
  <path
     d="m 103.12891,108.13876 v 3 h 38 v -3 h -1.92773 c -2.88517,1.30204 -5.45286,1.12974 -9.02149,0.97656 l -2.3418,-0.0762 c -2.4661,-0.0821 -4.93092,-0.17841 -7.39648,-0.27539 -1.67248,-0.0582 -3.34503,-0.11555 -5.01758,-0.17188 -4.09891,-0.13829 -8.1965,-0.29619 -12.29492,-0.45309 z"
     style="fill:#769b7f"
     id="path130" />
  <path
     d="m 185.59571,222.02353 c -2.86651,0.007 -5.60064,0.15984 -8.4668,1.11523 2.99999,2 3.00098,1.99927 5.98437,2.24219 l 3.625,-0.0117 3.97657,-0.006 c 2.0779,-0.0188 4.15637,-0.0369 6.23437,-0.0391 6.83499,9.7e-4 13.41801,-0.10151 20.17969,-1.18539 v -2 c -4.33528,-0.0205 -8.67055,-0.0378 -13.00586,-0.0488 -1.76888,-0.004 -3.53776,-0.009 -5.30664,-0.0137 -2.60834,-0.0127 -5.21585,-0.0257 -7.82422,-0.0312 l -2.47656,-0.004 c -0.99497,-0.006 -1.96442,-0.0197 -2.91992,-0.0176 z"
     style="fill:#c1cdc0"
     id="path129" />
  <path
     d="m 293.12891,141.13876 v 8 h -63 l 4,1 c -5.37614,0.84886 -9.65382,1.00241 -15,0 3.49801,0.56998 6.878,0.9968 10.42383,1.08203 l 3.61328,-0.0606 c 2.09894,-0.0303 4.19807,-0.0626 6.29687,-0.10156 1.49299,-0.0279 2.98546,-0.0541 4.47852,-0.0781 3.92284,-0.0605 7.84489,-0.12365 11.76758,-0.19336 4.06112,-0.0723 8.12235,-0.13961 12.18359,-0.20508 8.74532,-0.14054 17.49125,-0.28912 26.23633,-0.44333 v -9 z"
     style="fill:#dad7d2"
     id="path128" />
  <path
     d="m 208.12891,120.13876 -0.625,1.6875 c -0.4947,3.05063 0.22694,4.58628 1.625,7.3125 2.28104,2.186 3.03111,3.0835 4.1875,6.1875 l 0.8125,2.8125 4,-1 c -0.43668,-4.25764 -1.5186,-8.23872 -3.35156,-12 h -0.64844 c -0.83123,-1.24685 -1.27196,-2.30013 -1.58398,-3.33008 -2.15445,-1.21916 -2.34609,-1.26743 -4.41602,-1.66992 z"
     style="fill:#7fab8e"
     id="path127" />
  <path
     d="m 116.83203,144.22274 c -4.05297,0.034 -8.10058,0.28673 -12.14062,0.91602 -1.84991,0.35618 -3.70282,0.69894 -5.5625,1 l -1,-1 -1,3 c 13.48084,0.20801 26.69564,0.42291 40,-2 v -1 c -6.77225,-0.42233 -13.54191,-0.97265 -20.29688,-0.91602 z"
     style="fill:#a0c2a6"
     id="path126" />
  <path
     d="m 102.12891,104.13876 c -1.11387,2.22774 -1.11398,2.22736 -0.96094,7.5625 l 0.082,2.28906 c 0.0738,2.41777 0.14861,4.8364 0.23047,7.25391 0.0572,1.68385 0.11258,3.3668 0.16602,5.05078 0.15414,4.94814 0.31496,9.89604 0.48242,14.84375 h 1 v -33 c 4.09844,0.1569 8.19598,0.3148 12.29492,0.45312 1.67256,0.0563 3.34509,0.11363 5.01758,0.17188 2.46558,0.097 4.93037,0.19326 7.39648,0.27539 l 2.3418,0.0762 c 4.347,0.18659 7.17489,0.53966 10.94922,-1.97656 l -38,-1 z"
     style="fill:#88ad8f"
     id="path125" />
  <path
     d="m 266.74805,222.10556 c -5.18946,-0.004 -10.37442,0.0468 -15.55859,0.13867 l 8.93945,0.89453 v 1 c -3.66291,0.74923 -6.42369,1.23795 -10,0 v -1.87695 c -9.33161,0.17584 -18.66012,0.48818 -28,0.87695 l -1,2 c 17.35767,0.10098 34.67615,0.26484 52,-1 v -2 c -2.12794,-0.0203 -4.25447,-0.0315 -6.38086,-0.0332 z"
     style="fill:#b4c5b4"
     id="path124" />
  <path
     d="m 200.12891,87.138767 c -1.4375,2.87499 -1.4375,2.87501 -1,9 3.00532,1.69457 3.00533,1.69458 4.16797,3.945303 l 0.45508,0.97266 c -0.60095,-1.873243 -0.62305,-2.004783 -0.62305,-4.917963 h 2 l 2.88281,8.648433 c 0.0415,-0.21233 0.0804,-0.4285 0.11719,-0.64844 -1.51762,-5.868903 -3.64793,-12.647923 -8,-16.999993 z m 0,16.999993 c 0.9395,3.62378 1.31445,6.31445 4,9 1.91586,-2.54299 3.09473,-4.808 3.75781,-7.75781 l -1.75781,1.75781 c -0.16305,-0.4086 -0.3208,-0.81933 -0.48242,-1.22852 -1.81597,-0.84675 -3.52467,-1.30647 -5.51758,-1.77148 z"
     style="fill:#8db196"
     id="path123" />
  <path
     d="m 544.17969,60.898537 -2.4082,0.0137 h -2.73047 l -2.95117,0.0312 c -3.11274,0.009 -6.22523,0.0207 -9.33789,0.0449 -2.16892,0.0173 -4.3369,0.0309 -6.50586,0.041 -6.37218,0.02423 -12.74517,0.05883 -19.11719,0.10943 v 1 c 5.85481,0.85161 11.53516,1.05232 17.4375,1 3.8517,-0.0371 7.65613,-0.0784 11.49609,0.25391 6.18715,0.78205 11.87346,0.51138 18.06641,-0.25391 -2,-2 -2.00034,-1.99973 -3.94922,-2.24023 z"
     style="fill:#d7d6c4"
     id="path122" />
  <path
     d="m 8.22266,221.01767 c -2.094371,0.12025 -2.093752,0.12109 -3.0937501,1.12109 3.7277611,2.48517 6.6932721,2.32432 11.0000001,2 4.07321,-0.76566 8.02337,-1.15086 12.16797,-1.26563 l 2.29297,-0.0508 c 2.45747,-0.0646 4.91541,-0.12744 7.37304,-0.18554 1.70512,-0.0401 3.4102,-0.0818 5.11524,-0.125 3.94719,-0.10177 7.89442,-0.20237 11.8418,-0.29688 l 3.20898,-0.0762 v -1 c -6.14516,-0.021 -12.29036,-0.0378 -18.43555,-0.0488 -2.50064,-0.004 -5.0013,-0.009 -7.50195,-0.0137 -3.69886,-0.0127 -7.39683,-0.0256 -11.0957,-0.0312 l -3.494144,-0.004 -3.43164,-0.0156 h -3.154297 z"
     style="fill:#a3b59e"
     id="path121" />
  <path
     d="m 335.12891,117.13876 v 28 h -1 l -5,2 v -25 h -1 c -0.0205,3.06445 -0.037,6.12886 -0.0488,9.19336 l -0.0137,3.74414 -0.0254,3.73242 -0.01,3.54492 -0.0156,3.28516 c 0.11374,2.50024 0.1135,2.5 1.1135,3.5 2.99999,0.125 3.00001,0.125 6,0 1,-1 0.99976,-0.99976 1.20508,-3.86719 l 0.11133,-3.79297 c 0.065,-2.07749 0.12797,-4.1547 0.18554,-6.23242 0.0399,-1.44829 0.0816,-2.89751 0.125,-4.3457 0.13011,-4.25399 0.25507,-8.50738 0.37305,-12.76172 z"
     style="fill:#9fb6a1"
     id="path120" />
  <path
     d="m 788.12891,6.1387673 -1,19.9999997 h 2 l 1,6 h 1 c 0.70757,-8.77386 1.36752,-17.24785 0,-25.9999997 z"
     style="fill:#aabca8"
     id="path119" />
  <path
     d="m 4.6914099,0.07626738 c -4.5321139,0.0795 -4.5321239,0.0795 -4.6601559,4.22265992 l 0.03516,3.90234 c 0.01617,2.3125297 0.03565,4.6250697 0.0625,6.9374997 1.999996,-2 2,-2.00001 2.195312,-4.60156 L 2.25391,7.5137673 2.199222,4.4747073 2.12891,2.1387673 c 1.415772,1.18424 1.4157739,1.18425 1.0625,4.5625 L 3.12891,10.138767 H 4.1289099 L 5.179691,7.1934573 c 1.6712909,-3.39865 1.6713019,-3.39866 5.304688,-3.85938 l 3.832031,-0.07031 3.855469,-0.11719 2.957031,-0.00781 v -1 h -13 V 0.13876738 Z"
     style="fill:#9cb49a"
     id="path118" />
  <path
     d="m 343.12891,104.13876 -2,2 c -0.003,0.005 -0.005,0.009 -0.008,0.0137 0.58056,-0.70511 1.22762,-1.38196 2.008,-2.0137 z m 2,1 -6.48047,10.18555 c 0.3572,-0.39874 0.74188,-0.91695 1.30469,-1.68946 l 1.86328,-3.05859 c 1.11218,-1.80759 2.2188,-3.61867 3.3125,-5.4375 z m -6.19531,4.69141 c -0.26831,0.43639 -0.53231,0.8748 -0.80469,1.30859 -3.15398,2.7304 -4.857,4.02516 -5.47656,8.23047 l 0.20703,3.60156 c 0.0938,1.97908 0.18909,3.9586 0.32031,5.93555 0.0922,1.37179 0.17477,2.74426 0.24805,4.11719 0.20154,4.04091 0.43366,8.07816 0.70117,12.11523 h 1 v -28 c 1.53155,-0.51052 2.28095,-0.76132 2.89062,-1.2168 l -0.89062,-1.7832 c 0.56494,-1.55358 1.16078,-2.9412 1.80469,-4.30859 z"
     style="fill:#89b093"
     id="path117" />
  <path
     d="M 787.12891,0.13876738 V 2.1387673 c -3.10136,-0.1401 -6.20285,-0.27505 -9.30469,-0.4043 l -3.82031,-0.1582 -3.75,-0.16992 -3.63281,-0.14649 c -4.34018,-0.186 -8.22509,0.04404 -12.49219,0.87891 v 1 c 3.64074,0.0982 7.28139,0.19952 10.92187,0.30664 1.48436,0.044 2.96875,0.0877 4.45313,0.13086 2.19072,0.0588 4.38173,0.11817 6.57227,0.18359 l 2.07617,0.0625 c 2.32696,0.0662 4.65383,0.1612 6.97656,0.31641 2.00032,1.00016 3.83126,1.49396 6,2 v -5 z"
     style="fill:#9ab09a"
     id="path116" />
  <path
     d="m 308.12891,79.138767 -0.875,0.875 0.875,6.125 c 1.93748,0.68749 1.93752,0.68752 4,2 0.74999,2.62497 0.75,2.62503 1,5 h 2 l 1,4 1,-2 h 2 l -1,-5 -4,-1 -0.75977,-4.56055 c -0.32347,-0.61526 -0.68082,-1.18168 -1.09179,-1.72265 l -2.14844,-0.7168 c -0.35296,-0.89279 -0.42839,-1.47456 -0.57422,-1.96289 -0.43446,-0.33856 -0.90596,-0.68144 -1.42578,-1.03711 z"
     style="fill:#76ab8c"
     id="path115" />
  <path
     d="m 189.12891,68.138767 c -2.25,2.25 -2.25,2.25001 -4,8 4.74998,-2.99999 4.75001,-3 7,-3 l 1,3 h 2 c 0.58918,3.01135 0.85419,4.40787 0.82617,5.41406 l 0.0312,0.0156 0.14263,-0.42966 1,1 1,-2 -1.21484,-2.82031 -1.72266,-3.30469 c -1.01341,-1.96218 -2.03209,-3.9217 -3.0625,-5.875 z"
     style="fill:#94ae96"
     id="path114" />
  <path
     d="m 362.22266,68.998137 c -0.75,0 -1.53125,0.0469 -3.09375,0.14063 -1.54571,2.31856 -2.79619,4.50639 -4,7 l 5,-1 v 4 c 2.91227,-3.28804 4.49701,-5.59886 5,-10 -1.4375,-0.0937 -2.15625,-0.14063 -2.90625,-0.14063 z"
     style="fill:#8ba78d"
     id="path113" />
  <path
     d="m 192.12891,73.138767 c -2.25,0 -2.25001,1e-5 -7,3 l 0.75977,3.79883 c 0.37188,-0.34215 0.59958,-0.70506 1.11523,-1.04883 2.12499,-0.75 2.12502,-0.75 6.125,-0.75 l 1,3 -1,1 v 2 h 2 l 0.83789,-2.51172 c 0.0369,-1.00844 -0.24063,-2.43561 -0.83789,-5.48828 h -2 z"
     style="fill:#77a781"
     id="path112" />
  <path
     d="m 328.26953,107.25985 0.85938,6.87891 -4,-2 c -0.003,-0.13342 0.003,-0.26695 0,-0.40039 l -1,-0.59961 -1,2 c 1.9309,2.31707 3.73468,4.49132 5.13281,7.17187 l 0.86719,1.82813 c 1.30468,-3.29367 2.44847,-6.49268 3,-10 -1.76856,-3.04924 -1.8261,-3.1352 -3.85938,-4.87891 z"
     style="fill:#93b29b"
     id="path111" />
  <path
     d="m 308.12891,74.138767 0.33203,1.71484 0.48047,2.22266 c 0.45703,2.21484 0.45703,2.21485 1.1875,4.0625 l 3,1 1,6 4,1 c 0,-2 0,-2 -1.17188,-4.24219 l -1.57812,-2.63281 c -2.08677,-3.53064 -4.25124,-6.32181 -7.25,-9.125 z"
     style="fill:#90ad97"
     id="path110" />
  <path
     d="m 224.12891,144.13876 1,5 h -6 v 1 c 5.34629,1.00243 9.62376,0.84888 15,0 l -4,-1 v -4 l -4,2 v -2 z"
     style="fill:#e1e6dc"
     id="path109" />
  <path
     d="m 193.12891,78.138767 c -3.99999,0 -4,0 -6.125,0.75 -2.22361,1.48241 -2.89459,2.79897 -3.875,5.25 l 3,1 c 1.60547,-0.99609 1.60547,-0.9961 3.1875,-2.4375 l 2.8125,-2.5625 v 3 l 2,-2 z"
     style="fill:#87af89"
     id="path108" />
  <path
     d="m 790.12891,217.13876 v 3 l -8,1 -1,3 1.93359,0.0352 2.50391,0.0273 2.49609,0.0352 c 2.06641,-0.0977 2.06641,-0.0977 3.06641,-1.0977 0.0408,-1.99958 0.0425,-4.00046 0,-6 z"
     style="fill:#96a792"
     id="path107" />
  <path
     d="m 275.12891,89.138767 c -0.26676,1.98491 -0.26676,1.98492 -1,4 l -3,1 1,4 1,-2 h 4 l 2,-6 z"
     style="fill:#7ea17e"
     id="path106" />
  <path
     d="m 308.12891,86.138767 c 0,1.11328 10e-6,1.11329 3.19922,6.41992 l 1.30078,2.14258 c 1.49777,2.48054 2.99735,4.95991 4.5,7.437493 l 1,-3.999993 h -2 l -1,-5 h -2 c -0.25,-2.375 -0.25,-2.37501 -1,-5 -2.0625,-1.3125 -2.0625,-1.3125 -4,-2 z"
     style="fill:#91b599"
     id="path105" />
  <path
     d="m 161.12891,140.13876 -4,1 -0.82813,4.97266 2.20313,-0.34766 c 2.53282,-0.38115 2.84666,-0.59155 4.29297,-2.29102 z"
     style="fill:#86a789"
     id="path104" />
  <path
     d="m 196.12891,81.138767 -1,3 h -2 l 1,4 h 5 l 1,-3 z"
     style="fill:#85a990"
     id="path103" />
  <path
     d="m 180.12891,86.138767 c -1,2 -1,2 -1.75391,4.16406 l -0.80859,2.46094 c -0.48059,1.45786 -0.96019,2.91606 -1.4375,4.375 h 2 c 1.32831,-3.35241 2.31642,-6.21515 4.6875,-8.9375 l 1.3125,-1.0625 z"
     style="fill:#8cb28e"
     id="path102" />
  <path
     d="m 343.12891,104.13876 c -3.32169,2.68899 -4.56478,6.05313 -6,10 l 1,2 7,-11 z"
     style="fill:#98b899"
     id="path101" />
  <path
     d="m 353.12891,77.138767 c -2.31663,3.93828 -4.43359,7.69236 -6,12 l 1.88672,-0.25781 c 2.11328,-0.74219 2.11328,-0.74219 3.19531,-2.48438 l 0.73047,-2.13281 c 1.14068,-3.13831 1.28904,-3.82039 0.1875,-7.125 z"
     style="fill:#8dae8d"
     id="path100" />
  <path
     d="m 163.12891,143.13876 c -1.85942,2.20882 -1.85943,2.20882 -4.625,2.625 l -2.375,0.375 -1,3 h 7 c 1.0625,-1.875 1.0625,-1.875 2,-4 z"
     style="fill:#a5bca7"
     id="path99" />
  <path
     d="m 98.12891,70.138767 v 10 h 1 l 1,-3 h 2 v -3 h -2 v -4 z"
     style="fill:#81a48c"
     id="path98" />
  <path
     d="m 236.12891,141.13876 v 3 h -5 l 1,2 1.86328,-0.36719 2.44922,-0.50781 c 3.26808,-0.66309 4.83272,-1.22181 7.6875,-3.125 z"
     style="fill:#88aa8b"
     id="path97" />
  <path
     d="m 233.12891,139.13876 -2,5 h 5 v -3 l 2,-1 z"
     style="fill:#7b9b7e"
     id="path96" />
  <path
     d="m 133.12891,69.138767 v 1 h 12 v 2 h 2 l 1,3 v -6 z"
     style="fill:#a7b9a8"
     id="path95" />
  <path
     d="m 326.12891,106.13876 -1,1 c -0.0406,1.66617 -0.0427,3.33388 0,5 l 4,2 -1,-8 z"
     style="fill:#80af92"
     id="path94" />
  <path
     d="m 696.12891,83.138767 c 0.75,2.93749 0.75,2.93751 2,6 2.125,0.875 2.125,0.875 4,1 l 2,-3 -3,-1 -3,-3 z"
     style="fill:#bdc5b3"
     id="path93" />
  <path
     d="m 301.12891,74.138767 c 1.83025,4.66713 3.64976,8.18766 7,12 l -1,-7 h -2 l -1.88086,-4.70313 c -0.37218,-0.10203 -0.5528,-0.13506 -1.11914,-0.29687 z"
     style="fill:#90b69c"
     id="path92" />
  <path
     d="m 693.12891,127.13876 c -2.77289,3.21071 -5.33249,6.05862 -7,10 2,-1 2,-1 3.72656,-2.84766 l 1.89844,-2.21484 c 1.12803,-1.30989 2.25396,-2.62162 3.375,-3.9375 z"
     style="fill:#bec7b4"
     id="path91" />
  <path
     d="m 203.12891,96.138767 c 0,2.99999 0,3 0.65625,5.042963 l 0.84375,2.14453 c 0.49531,1.27267 0.99385,2.54411 1.5,3.8125 l 2,-2 -3,-8.999993 z"
     style="fill:#98b69d"
     id="path90" />
  <path
     d="m 303.27149,69.947357 c -0.74156,-0.002 -1.71951,0.076 -3.14258,0.19141 0.6875,1.9375 0.6875,1.9375 2,4 2.62499,0.75 2.625,0.75 5,1 l 1,-2 -1.1875,-1.5 c -1.55282,-1.28509 -2.0385,-1.68589 -3.66992,-1.69141 z"
     style="fill:#83a48a"
     id="path89" />
  <path
     d="m 179.12891,103.13876 -2,1 c -0.73076,2.31406 -1.40138,4.64829 -2,7 l 2,1 c 1.06652,-2.30368 2.06421,-4.64019 3,-7 z"
     style="fill:#94b494"
     id="path88" />
  <path
     d="m 250.12891,222.13876 v 2 c 3.57644,1.238 6.33695,0.74926 10,0 v -1 z"
     style="fill:#b1c2b0"
     id="path87" />
  <path
     d="m 245.12891,124.13876 -5,6 2,1 6,-4 z"
     style="fill:#8ba688"
     id="path86" />
  <path
     d="m 212.12891,115.13876 c -0.1618,4.28758 -0.42945,6.35583 2,10 h 2 c -1.00193,-3.79303 -1.81024,-6.71537 -4,-10 z"
     style="fill:#9eb6a0"
     id="path85" />
</svg>
